<mxfile host="app.diagrams.net" agent="Mozilla/5.0 (Macintosh; Intel Mac OS X 10_15_7) AppleWebKit/537.36 (KHTML, like Gecko) Chrome/141.0.0.0 Safari/537.36" version="28.2.8">
  <diagram name="Page-1" id="rc6oOU_R5zSDFYttRdpV">
    <mxGraphModel dx="2527" dy="1494" grid="1" gridSize="10" guides="1" tooltips="1" connect="1" arrows="1" fold="1" page="1" pageScale="1" pageWidth="827" pageHeight="1169" math="0" shadow="0">
      <root>
        <mxCell id="0" />
        <mxCell id="1" parent="0" />
        <mxCell id="FI-kgKAkl0UwsvHkJetG-1" value="" style="sketch=0;pointerEvents=1;shadow=0;dashed=0;html=1;strokeColor=none;fillColor=#505050;labelPosition=center;verticalLabelPosition=bottom;verticalAlign=top;outlineConnect=0;align=center;shape=mxgraph.office.devices.mac_client;" parent="1" vertex="1">
          <mxGeometry x="90" y="150" width="970" height="830" as="geometry" />
        </mxCell>
        <mxCell id="FI-kgKAkl0UwsvHkJetG-12" value="Development Tools Environment" style="text;strokeColor=none;fillColor=none;html=1;fontSize=50;fontStyle=1;verticalAlign=middle;align=center;" parent="1" vertex="1">
          <mxGeometry x="520" y="20" width="637.5" height="90" as="geometry" />
        </mxCell>
        <mxCell id="FI-kgKAkl0UwsvHkJetG-22" value="" style="endArrow=classic;startArrow=classic;html=1;rounded=0;" parent="1" source="FI-kgKAkl0UwsvHkJetG-1" target="FI-kgKAkl0UwsvHkJetG-10" edge="1">
          <mxGeometry width="50" height="50" relative="1" as="geometry">
            <mxPoint x="1080" y="460" as="sourcePoint" />
            <mxPoint x="1110" y="465" as="targetPoint" />
          </mxGeometry>
        </mxCell>
        <mxCell id="FI-kgKAkl0UwsvHkJetG-24" value="" style="group" parent="1" vertex="1" connectable="0">
          <mxGeometry x="1180" y="420" width="444.45000000000005" height="280" as="geometry" />
        </mxCell>
        <mxCell id="FI-kgKAkl0UwsvHkJetG-10" value="" style="image;aspect=fixed;perimeter=ellipsePerimeter;html=1;align=center;shadow=0;dashed=0;spacingTop=3;image=img/lib/active_directory/internet_cloud.svg;" parent="FI-kgKAkl0UwsvHkJetG-24" vertex="1">
          <mxGeometry width="444.45" height="280" as="geometry" />
        </mxCell>
        <mxCell id="FI-kgKAkl0UwsvHkJetG-11" value="" style="shape=image;html=1;verticalAlign=top;verticalLabelPosition=bottom;labelBackgroundColor=#ffffff;imageAspect=0;aspect=fixed;image=https://icons.diagrams.net/icon-cache1/Ionicons-2627/icon-social-github-1402.svg" parent="FI-kgKAkl0UwsvHkJetG-24" vertex="1">
          <mxGeometry x="162.22000000000003" y="70" width="120" height="120" as="geometry" />
        </mxCell>
        <mxCell id="FI-kgKAkl0UwsvHkJetG-19" value="&lt;font style=&quot;font-size: 24px;&quot;&gt;GitHub&lt;/font&gt;" style="text;html=1;whiteSpace=wrap;strokeColor=none;fillColor=none;align=center;verticalAlign=middle;rounded=0;" parent="FI-kgKAkl0UwsvHkJetG-24" vertex="1">
          <mxGeometry x="172.22000000000003" y="190" width="100" height="30" as="geometry" />
        </mxCell>
        <mxCell id="FI-kgKAkl0UwsvHkJetG-25" value="" style="group" parent="1" vertex="1" connectable="0">
          <mxGeometry x="525" y="160" width="100" height="49.22999999999999" as="geometry" />
        </mxCell>
        <mxCell id="FI-kgKAkl0UwsvHkJetG-2" value="" style="shape=image;verticalLabelPosition=bottom;verticalAlign=top;imageAspect=0;aspect=fixed;image=data:image/svg+xml,PHN2ZyB4bWxucz0iaHR0cDovL3d3dy53My5vcmcvMjAwMC9zdmciIHZpZXdCb3g9IjU5LjQ1NjY0MjE1MDg3ODkwNiAtMC4wMjQwMDAwMDIwNzEyNjE0MDYgNTIxLjA4NTMyNzE0ODQzNzUgNjQwLjA0MDU4ODM3ODkwNjIiIGNsaXAtcnVsZT0iZXZlbm9kZCIgZmlsbC1ydWxlPSJldmVub2RkIiBpbWFnZS1yZW5kZXJpbmc9Im9wdGltaXplUXVhbGl0eSIgdGV4dC1yZW5kZXJpbmc9Imdlb21ldHJpY1ByZWNpc2lvbiIgc2hhcGUtcmVuZGVyaW5nPSJnZW9tZXRyaWNQcmVjaXNpb24iIGhlaWdodD0iNjQuMDA0MDU4ODM3ODkwNjIiIHdpZHRoPSI1Mi4xMDg1MzI3MTQ4NDM3NSI+PHBhdGggZD0iTTQ5NC43ODIgMzQwLjAyYy0uODAzLTgxLjAyNSA2Ni4wODQtMTE5LjkwNyA2OS4wNzItMTIxLjgzMi0zNy41OTUtNTQuOTkzLTk2LjE2Ny02Mi41NTItMTE3LjAzNy02My40MDItNDkuODQzLTUuMDMyLTk3LjI0MiAyOS4zNjItMTIyLjU2NSAyOS4zNjItMjUuMjUzIDAtNjQuMjc3LTI4LjYwNy0xMDUuNjA0LTI3Ljg1LTU0LjMyLjgwMy0xMDQuNCAzMS41OTQtMTMyLjQwMyA4MC4yNDVDMjkuODEgMzM0LjQ1NyA3MS44MSA0NzkuNTggMTI2LjgxNiA1NTguOTc2YzI2Ljg3IDM4Ljg4MiA1OC45MTQgODIuNTYgMTAwLjk5NyA4MSA0MC41MTItMS41OTQgNTUuODQzLTI2LjI0NCAxMDQuODQ4LTI2LjI0NCA0OC45OTMgMCA2Mi43NTMgMjYuMjQ1IDEwNS42NCAyNS40MDYgNDMuNjA2LS44MDMgNzEuMjMyLTM5LjYzOCA5Ny45MjUtNzguNjUgMzAuODg3LTQ1LjEyIDQzLjU0OC04OC43NSA0NC4zMTYtOTAuOTk0LS45NjktLjQzNy04NS4wMjktMzIuNjM0LTg1Ljg3OS0xMjkuNDM5bC4xMTgtLjAzNXpNNDE0LjIzIDEwMi4xNzhDNDM2LjU1MyA3NS4wOTUgNDUxLjYzNiAzNy41IDQ0Ny41MTQtLjAyNGMtMzIuMTYyIDEuMzExLTcxLjE2MyAyMS40MzctOTQuMjUzIDQ4LjQ4NS0yMC43MjkgMjQuMDEyLTM4LjgzNiA2Mi4yOC0zMy45OTMgOTkuMDM2IDM1LjkxOCAyLjggNzIuNTkxLTE4LjI0OCA5NC45MjYtNDUuMjcybC4wMzYtLjA0N3oiLz48L3N2Zz4=;" parent="FI-kgKAkl0UwsvHkJetG-25" vertex="1">
          <mxGeometry x="30" width="40" height="49.23" as="geometry" />
        </mxCell>
        <mxCell id="FI-kgKAkl0UwsvHkJetG-20" value="&lt;font&gt;M4&lt;/font&gt;" style="text;html=1;whiteSpace=wrap;strokeColor=none;fillColor=none;align=center;verticalAlign=middle;rounded=0;fontSize=14;fontColor=light-dark(#ffffff, #ededed);" parent="FI-kgKAkl0UwsvHkJetG-25" vertex="1">
          <mxGeometry y="20" width="100" height="19.81" as="geometry" />
        </mxCell>
        <mxCell id="FI-kgKAkl0UwsvHkJetG-26" value="" style="group" parent="1" vertex="1" connectable="0">
          <mxGeometry x="240" y="282.5" width="130.26" height="160" as="geometry" />
        </mxCell>
        <mxCell id="FI-kgKAkl0UwsvHkJetG-3" value="" style="shape=image;verticalLabelPosition=bottom;verticalAlign=top;imageAspect=0;aspect=fixed;image=data:image/svg+xml,PHN2ZyB4bWxucz0iaHR0cDovL3d3dy53My5vcmcvMjAwMC9zdmciIHN0cm9rZS1taXRlcmxpbWl0PSIyIiBzdHJva2UtbGluZWpvaW49InJvdW5kIiBjbGlwLXJ1bGU9ImV2ZW5vZGQiIGZpbGwtcnVsZT0iZXZlbm9kZCIgdmlld0JveD0iNiA2LjUzOTk5ODA1NDUwNDM5NDUgNDk5Ljk5ODk5MjkxOTkyMTkgNDk4LjkyMjAyNzU4Nzg5MDYiIHdpZHRoPSI0OTkuOTk4OTkyOTE5OTIxOSIgaGVpZ2h0PSI0OTguOTIyMDI3NTg3ODkwNiI+PHBhdGggZmlsbD0iIzQzYjA0OSIgZD0iTTI1Ni41NCA2LjU0MWMtOS41NDYgMC0xOS4xMDkuNzMyLTI4LjA5IDEuNDY0YTI5OS4yOCAyOTkuMjggMCAwMTM3LjY4NiAzMC40bDkuNTYyIDguODgxLTkuNTYyIDkuNTYzYTI1Ny44NzUgMjU3Ljg3NSAwIDAwLTIzLjY0OSAyNS4xMjl2LjczMWE1Mi4yNDMgNTIuMjQzIDAgMDAtMy42OTIgNC40NCAxNDAuNjIgMTQwLjYyIDAgMDExNy43NDUtLjczMWM0NC42ODYuNTk5IDg3LjMyNyAxOC43OTIgMTE4LjcxIDUwLjU5QTE2OS45OTcgMTY5Ljk5NyAwIDAxNDI0LjIxIDI1Ni40YzAgNDQuNjg3LTE3LjU3OSA4Ny41NzctNDguOTYgMTE5LjM3NWExNzAuMDIxIDE3MC4wMjEgMCAwMS0xMTguNzEgNTAuNjA3IDE2NS42NzMgMTY1LjY3MyAwIDAxLTg4LjY5MS0yNS4xMyAzNDAuODY0IDM0MC44NjQgMCAwMS0zOC40MTcgMi4yMyAxNDAuNzc1IDE0MC43NzUgMCAwMS0xNy43NjEtLjc2NiA1NzYuOTQzIDU3Ni45NDMgMCAwMDUuMjA1IDU5Ljg1NCAyNDUuNTg1IDI0NS41ODUgMCAwMDEzOS42NjQgNDIuODljMzIuNzYyIDAgNjUuMTkyLTYuNDUzIDk1LjQ2LTE4Ljk5MmEyNDkuNzU4IDI0OS43NTggMCAwMDgwLjk0LTU0LjA2NiAyNDkuMjI5IDI0OS4yMjkgMCAwMDU0LjA2Ny04MC45NDFBMjQ5LjM4MiAyNDkuMzgyIDAgMDA1MDUuOTk5IDI1NmMwLTMyLjc2Mi02LjQ1My02NS4xOTItMTguOTkyLTk1LjQ2QTI0OS4yMjkgMjQ5LjIyOSAwIDAwNDMyLjk0IDc5LjYgMjQ5Ljc1OCAyNDkuNzU4IDAgMDAzNTIgMjUuNTMyYTI0OS4zODIgMjQ5LjM4MiAwIDAwLTk1LjQ2LTE4Ljk5MnpNMTIxLjMgNDYuNDU1YTI0Ny44MDUgMjQ3LjgwNSAwIDAxNTQuNjY1LTI2LjYxIDM4My40NDMgMzgzLjQ0MyAwIDAwLTE3LjA0NyAzNS40NTcgMzQzLjA2NyAzNDMuMDY3IDAgMDAtMzcuNjE4LTguODQ3em0tMTQuMDIgOTAuNzAzYzkuOTYyLS42NjUgMTkuNDQyLTEuMzE0IDI5LjUzNi0xLjMxNGExNTEuMDg4IDE1MS4wODggMCAwMC0yNi42MDkgMzQuMDEgMjUzLjYzNCAyNTMuNjM0IDAgMDEtNS45Mi0zMi40OTdsMi45OTMtLjJ6bS04Ljg4IDI1MC43NHYxLjQ2M2wtMi4yNDYtLjY2NWEyOTMuMDQ1IDI5My4wNDUgMCAwMS01Ni4xNjEtMTAuMzYxbC0xLjQ2NC0uNzMyLjczMi0xLjQ5N2EzOTcuNzc4IDM5Ny43NzggMCAwMTIwLjY3Mi01MS42NTRsLjc2NS0xLjQ5NyAxLjQ2NC43NDhhMzc5LjA1NiAzNzkuMDU2IDAgMDAzOC40MzMgMTkuMTA5bDEuNDk3LjczMnYxLjQ2M2EyNjguNTg0IDI2OC41ODQgMCAwMC0zLjY5MiA0Mi44OXptMCAxNC43MzR2LTEuNDYzaC0xLjUxNGEzODEuNTExIDM4MS41MTEgMCAwMS00OC4wMjktOC4xMTZsLTQuNDQtLjczMiAyLjIyOCAzLjY5MmEyNTguNjE4IDI1OC42MTggMCAwMDUyLjQ4NiA1Ny42MjVsMi45NiAyLjk2di01LjE4OGEzODUuOTI2IDM4NS45MjYgMCAwMS0zLjY5MS00OC43Nzh6TTIzOC43OTUgNDguNjVjLTUuMTU1IDUuMTg5LTEwLjM2IDExLjA5Mi0xNS41MTYgMTcuMDEzLS42MzIuNzMyLTQuNDI0IDUuMTU1LTguODgxIDExLjEyNi0xMC4zMjgtNC45MjMtMjAuOTIxLTkuMTQ3LTMxLjQxNS0xMy4zMzhsLTEuODEzLS43MTVhMzAzLjQ5NiAzMDMuNDk2IDAgMDEyMC42NzItNDEuNDI3IDQzOS42NiA0MzkuNjYgMCAwMTM2Ljk1MyAyNy4zNHpNNTQuMDQ1IDIwOC4zMDRsLjczMyAxLjQ2MyAxLjQ2My0uNzMyYTM4NC44NDQgMzg0Ljg0NCAwIDAxMzYuMjIxLTIyLjlsMS40NjQtLjczMnYtMS40OTdhMjg2Ljk5NCAyODYuOTk0IDAgMDEtOC4xMTYtNDMuNTU1di0xLjQ5N2gtMS40NjNBMzIxLjg5NyAzMjEuODk3IDAgMDAzMC4zOCAxNTMuNjRsLTEuNDguNzMyLjczMiAxLjQ5NmEyMjQuOTkzIDIyNC45OTMgMCAwMDI0LjQxNCA1Mi40Mzd6bS00LjQyMyAyNS4xMTJsMS40NjQtMS40NjQuODgxIDIuMTEyYTM4OS4yNjMgMzg5LjI2MyAwIDAwMjUuODc3IDMyLjQ4bC43MzIuNzQ4LS43MzIgMS40OTdhMzMzLjA0MSAzMzMuMDQxIDAgMDAtMjIuMzAxIDMzLjk5M2wtLjczMiAxLjQ2My0xLjQ2NC0uNzMxQTQyNS4yNCA0MjUuMjQgMCAwMTExLjkyIDI3Mi40OGwtMS40OTYtMS40OTcgMS40OTYtMS4zNDdhMzQ0LjgyOCAzNDQuODI4IDAgMDEzNy43MDItMzYuMjIxem03OS43OTQgMTU2LjY5M2gyNC4zOGwtMy42OTItMi45NmExNTMuOTk4IDE1My45OTggMCAwMS0zMy45OTMtMzguNDMzdi0uNzMybC0yLjk0My0xLjQ5N3YyLjIyOWEzMzUuOTc1IDMzNS45NzUgMCAwMC0yLjk2IDM5LjE5OHYxLjQ2NGgxLjQ2M2MyLjk3NyAwIDUuOTIuMTgyIDguODguMzY1IDIuOTYuMTgzIDUuOTA0LjM2NiA4Ljg2NS4zNjZ6TTE1MS42IDc3LjUwNGEyOTQuMDcgMjk0LjA3IDAgMDAtMTAuMzYxIDM2LjIyMSAzMjUuODU1IDMyNS44NTUgMCAwMC0zOC40MTcgMi4xMjkgMzYxLjc2NyAzNjEuNzY3IDAgMDEuNzMyLTQ4Ljc3OCAzNTEuMjk3IDM1MS4yOTcgMCAwMTQ4LjA0NiAxMC40Mjh6bTEzLjI4OCAzNS40MjNhMjE2Ljc4OCAyMTYuNzg4IDAgMDEzNC43NTgtMTYuOTggMjA1Ljg2IDIwNS44NiAwIDAwLTI2LjY0My0xMS4wNzZjLTIuOTI3IDguODQ4LTUuODg3IDE4LjQ3Ny04LjExNSAyOC4wNTZ6TTQ3LjQxIDMxNS41ODdoMS40NDdsLS43MTUgMi45MjhhNDE5LjI2NyA0MTkuMjY3IDAgMDAtMTcuNzQ1IDQxLjQyNmwtMS40NjMgMy42OTItMS40NjQtMy42OTJhMjMzLjQwNSAyMzMuNDA1IDAgMDEtMTkuOTczLTY5LjQ2NmwtLjczMi00LjQ1NyAzLjY5MiAyLjk2YTQyMy40MTggNDIzLjQxOCAwIDAwMzYuOTUzIDI2LjYxem0zMy4yMjgtMjM2LjYyYTI0Ny4wNzQgMjQ3LjA3NCAwIDAwLTM4LjQxNyA0OS41MWMxMi40NTctMy42NzYgMjUuNjc4LTYuNTg2IDM4Ljg2Ni05LjQ5NmwuMy0uMDY3Yy0uNzQ5LTEzLjM1NC0uNzQ5LTI2LjYyNi0uNzQ5LTM5Ljk0N3ptNy40IDE3MC43MTN2NC40MjRsLTIuMTExLTMuNzI1Yy01LjYwNS02LjE1My0xMC43Ni0xMy4xODgtMTUuODMzLTIwLjA3My0xLjYzLTIuMTk1LTMuMjI2LTQuMzktNC44NC02LjUybC0yLjIyOC0xLjQ5NiAxLjQ5Ny0uNzMyYzkuMTgtNi40MDMgMTguMzYtMTIuMDkgMjcuNTI0LTE3Ljc3OGwxLjE0Ny0uNzE1IDMuNjkyLTIuMTk1LTEuNDYzIDQuNDU3YTE3NC41NTkgMTc0LjU1OSAwIDAwLTcuMzg0IDQ0LjM1M3ptMi4xOTYgMzAuMzE4bC0uNzMyLTQuNDI0LTIuMTk1IDMuNjkyYy02LjY1MiA5LjU2My0xMy4zMjEgMTkuOTQtMTkuMTI1IDMwLjMwMWwtLjc2NSAxLjQ2NCAxLjUxMy43MzJjMTAuMDI4IDUuNzU0IDIwLjc4OCAxMC43OTMgMzEuNTY1IDE1Ljg0OGwuOTMxLjQzMyAzLjY5MiAxLjQ2My0xLjQ2My0zLjY5MmExNjMuODI4IDE2My44MjggMCAwMS0xMy40MjEtNDUuODE3em0tNDcuMjgtNjAuNzM1bC0xLjQ5OC43MzJBMTgzLjU3NiAxODMuNTc2IDAgMDA4Ljk2IDI1MS4xNDRMNiAyNTQuMTA0di00LjQyNGEyNDkuMzE3IDI0OS4zMTcgMCAwMTExLjgyNC03MC4yMTRsMS40OTctNC40MjQgMS40NjQgMy42OTJhNDAyLjI3MiA0MDIuMjcyIDAgMDAyMS40MzYgMzkuMDMybC43MzIgMS40OTd6Ii8+PC9zdmc+;" parent="FI-kgKAkl0UwsvHkJetG-26" vertex="1">
          <mxGeometry width="130.26" height="130" as="geometry" />
        </mxCell>
        <mxCell id="FI-kgKAkl0UwsvHkJetG-13" value="&lt;font style=&quot;font-size: 24px;&quot;&gt;Anaconda&lt;/font&gt;" style="text;html=1;whiteSpace=wrap;strokeColor=none;fillColor=none;align=center;verticalAlign=middle;rounded=0;" parent="FI-kgKAkl0UwsvHkJetG-26" vertex="1">
          <mxGeometry x="15.129999999999995" y="130" width="100" height="30" as="geometry" />
        </mxCell>
        <mxCell id="FI-kgKAkl0UwsvHkJetG-27" value="" style="group" parent="1" vertex="1" connectable="0">
          <mxGeometry x="460" y="290" width="195" height="145" as="geometry" />
        </mxCell>
        <mxCell id="FI-kgKAkl0UwsvHkJetG-5" value="" style="shape=image;verticalLabelPosition=bottom;verticalAlign=top;imageAspect=0;aspect=fixed;image=data:image/svg+xml,PHN2ZyB4bWxucz0iaHR0cDovL3d3dy53My5vcmcvMjAwMC9zdmciIHZpZXdCb3g9IjEuNzQ1OTk4MzgyNTY4MzU5NCA3Ljc1Nzk5OTQyMDE2NjAxNiAxMjQuODk1MDA0MjcyNDYwOTQgMTE0LjgxMTk5NjQ1OTk2MDk0IiB3aWR0aD0iMTI0Ljg5NTAwNDI3MjQ2MDk0IiBoZWlnaHQ9IjExNC44MTE5OTY0NTk5NjA5NCI+JiN4YTsgICAgPHBhdGggZD0iTTUxLjM5NSAyNC44NzljLTI3LjQyMiAwLTQ5LjY0OS0zLjgzMi00OS42NDktOC41MzV2OTIuMjYxYzAgNC43MjcgMjIuMjI3IDguNTM2IDQ5LjY0OSA4LjUzNiAyNy40MjEgMCA0OS42NDgtMy44MzIgNDkuNjQ4LTguNTM2VjE2LjI5YzAgNC43NTgtMjIuMjI3IDguNTktNDkuNjQ4IDguNTlabTAgMCIgZmlsbD0iI2QxZDFkMSIvPiYjeGE7ICAgIDxwYXRoIGQ9Ik0xLjc0NiAxNi4yOXY5Mi4zMTVjMCA0LjcyNyAyMi4yMjcgOC41MzYgNDkuNjQ5IDguNTM2VjI0Ljg3OWMtMjcuNDIyIDAtNDkuNjQ5LTMuODMyLTQ5LjY0OS04LjU5Wm05Mi4zMTcgNC40MDV2OTIuMjYyYzQuNDI1LTEuMjc3IDYuOTgtMi43NzcgNi45OC00LjM3NVYxNi4yODljMCAxLjYzMy0yLjU0NyAzLjEwNi02Ljk4IDQuNDA2Wm0wIDAiIGZpbGw9IiNhZGFkYWQiLz4mI3hhOyAgICA8cGF0aCBkPSJNMTAxLjA0MyAxNi4zMTNjMC00LjcyMy0yMi4yMy04LjU1NS00OS42NDgtOC41NTUtMjcuNDIyIDAtNDkuNjQ5IDMuODMyLTQ5LjY0OSA4LjU1NSAwIDQuNzI2IDIyLjIyNyA4LjU1OCA0OS42NDkgOC41NTggMjcuNDE3IDAgNDkuNjQ4LTMuODMyIDQ5LjY0OC04LjU1OFpNMS43NDYgNzQuMzMyYzAgNC43MjcgMjIuMjI3IDguNTM1IDQ5LjY0OSA4LjUzNSAyNy40MjEgMCA0OS42NDgtMy44MzIgNDkuNjQ4LTguNTM1djYuOTg0YzAgNC43MjMtMjIuMjI3IDguNTMyLTQ5LjY0OCA4LjUzMi0yNy40MjIgMC00OS42NDktMy44MzItNDkuNjQ5LTguNTMyWm0wLTMwLjc1YzAgNC43MjMgMjIuMjI3IDguNTM1IDQ5LjY0OSA4LjUzNSAyNy40MjEgMCA0OS42NDgtMy44MzYgNDkuNjQ4LTguNTM1djYuOThjMCA0LjcyNy0yMi4yMjcgOC41MzYtNDkuNjQ4IDguNTM2LTI3LjQyMiAwLTQ5LjY0OS0zLjgzMi00OS42NDktOC41MzVabTAgMCIgZmlsbD0iIzkzOTY5OSIvPiYjeGE7ICAgIDxwYXRoIGQ9Ik0xMjYuNjQgOTMuMDljMCAxNi4yODEtMTMuMTk1IDI5LjQ4LTI5LjQ3NiAyOS40OHMtMjkuNDgtMTMuMTk5LTI5LjQ4LTI5LjQ4IDEzLjE5OS0yOS40NzcgMjkuNDgtMjkuNDc3IDI5LjQ3NyAxMy4xOTYgMjkuNDc3IDI5LjQ3N1ptMCAwIiBmaWxsPSIjZWNlZGYwIi8+JiN4YTsgICAgPHBhdGggZD0iTTEyMy4wMDQgOTMuMDljMCAxNC4yNzMtMTEuNTcgMjUuODQtMjUuODQgMjUuODQtMTQuMjczIDAtMjUuODQtMTEuNTY3LTI1Ljg0LTI1Ljg0IDAtMTQuMjcgMTEuNTY3LTI1Ljg0IDI1Ljg0LTI1Ljg0IDE0LjI3IDAgMjUuODQgMTEuNTcgMjUuODQgMjUuODRabTAgMCIgZmlsbD0iIzNmYWEwMCIvPiYjeGE7ICAgIDxwYXRoIGQ9Im04OC4wNjMgMTA1LjkwNiAyNC4wMjctMTMuODctMjQuMDI4LTEzLjg3MlptMCAwIiBmaWxsPSIjZmZmIi8+JiN4YTs8L3N2Zz4=;" parent="FI-kgKAkl0UwsvHkJetG-27" vertex="1">
          <mxGeometry x="52.5" width="125" height="115" as="geometry" />
        </mxCell>
        <mxCell id="FI-kgKAkl0UwsvHkJetG-14" value="&lt;font style=&quot;font-size: 24px;&quot;&gt;SQL Developer&lt;/font&gt;" style="text;html=1;whiteSpace=wrap;strokeColor=none;fillColor=none;align=center;verticalAlign=middle;rounded=0;" parent="FI-kgKAkl0UwsvHkJetG-27" vertex="1">
          <mxGeometry y="115" width="195" height="30" as="geometry" />
        </mxCell>
        <mxCell id="FI-kgKAkl0UwsvHkJetG-28" value="" style="group" parent="1" vertex="1" connectable="0">
          <mxGeometry x="700.21" y="290" width="250" height="145" as="geometry" />
        </mxCell>
        <mxCell id="FI-kgKAkl0UwsvHkJetG-4" value="" style="shape=image;verticalLabelPosition=bottom;verticalAlign=top;imageAspect=0;aspect=fixed;image=data:image/svg+xml,PHN2ZyB4bWxuczp4bGluaz0iaHR0cDovL3d3dy53My5vcmcvMTk5OS94bGluayIgeG1sbnM9Imh0dHA6Ly93d3cudzMub3JnLzIwMDAvc3ZnIiB4bWw6c3BhY2U9InByZXNlcnZlIiBzdHlsZT0iZW5hYmxlLWJhY2tncm91bmQ6bmV3IDAgMCAyNTYgMjU2IiB2aWV3Qm94PSItMC4xNTg3NTE0ODc3MzE5MzM2IDAuNjU3OTU3NTUzODYzNTI1NCAyNTYuMTY4NzYyMjA3MDMxMjUgMjU0LjY4MTQ3Mjc3ODMyMDMiIHk9IjBweCIgeD0iMHB4IiBpZD0iTGF5ZXJfMSIgdmVyc2lvbj0iMS4xIiB3aWR0aD0iMjU2LjE2ODc2MjIwNzAzMTI1IiBoZWlnaHQ9IjI1NC42ODE0NzI3NzgzMjAzIj48c3R5bGUgdHlwZT0idGV4dC9jc3MiPi5zdDB7ZmlsbC1ydWxlOmV2ZW5vZGQ7Y2xpcC1ydWxlOmV2ZW5vZGQ7ZmlsbDojRkZGRkZGO2ZpbHRlcjp1cmwoI0Fkb2JlX09wYWNpdHlNYXNrRmlsdGVyKTt9IC5zdDF7bWFzazp1cmwoI21hc2swXzFfKTt9IC5zdDJ7ZmlsbDojMDA2NUE5O30gLnN0M3tmaWxsOiMwMDdBQ0M7fSAuc3Q0e2ZpbGw6IzFGOUNGMDt9IC5zdDV7b3BhY2l0eTowLjI1O30gLnN0NntmaWxsLXJ1bGU6ZXZlbm9kZDtjbGlwLXJ1bGU6ZXZlbm9kZDtmaWxsOnVybCgjU1ZHSURfMV8pO308L3N0eWxlPjxkZWZzPjxmaWx0ZXIgaGVpZ2h0PSIyNTQuNjgiIHdpZHRoPSIyNTYuMTYiIHk9IjAuNjYiIHg9Ii0wLjE2IiBmaWx0ZXJVbml0cz0idXNlclNwYWNlT25Vc2UiIGlkPSJBZG9iZV9PcGFjaXR5TWFza0ZpbHRlciI+PGZlQ29sb3JNYXRyaXggdmFsdWVzPSIxIDAgMCAwIDAgMCAxIDAgMCAwIDAgMCAxIDAgMCAwIDAgMCAxIDAiIHR5cGU9Im1hdHJpeCIvPjwvZmlsdGVyPjwvZGVmcz48bWFzayBpZD0ibWFzazBfMV8iIGhlaWdodD0iMjU0LjY4IiB3aWR0aD0iMjU2LjE2IiB5PSIwLjY2IiB4PSItMC4xNiIgbWFza1VuaXRzPSJ1c2VyU3BhY2VPblVzZSI+PHBhdGggZD0iTTE4MS41MywyNTQuMjVjNC4wMywxLjU3LDguNjMsMS40NywxMi43LTAuNDlsNTIuNzEtMjUuMzZjNS41NC0yLjY2LDkuMDYtOC4yNyw5LjA2LTE0LjQyVjQyLjAyIGMwLTYuMTUtMy41Mi0xMS43NS05LjA2LTE0LjQyTDE5NC4yMywyLjI0Yy01LjM0LTIuNTctMTEuNTktMS45NC0xNi4yOCwxLjQ3Yy0wLjY3LDAuNDktMS4zMSwxLjAzLTEuOTEsMS42M0w3NS4xNSw5Ny4zOSBMMzEuMiw2NC4wMmMtNC4wOS0zLjExLTkuODEtMi44NS0xMy42MSwwLjYxTDMuNDksNzcuNDVjLTQuNjUsNC4yMy00LjY1LDExLjU0LTAuMDEsMTUuNzdMNDEuNTksMTI4TDMuNDgsMTYyLjc3IGMtNC42NCw0LjI0LTQuNjQsMTEuNTUsMC4wMSwxNS43OGwxNC4xLDEyLjgyYzMuOCwzLjQ2LDkuNTIsMy43MSwxMy42MSwwLjYxbDQzLjk1LTMzLjM2bDEwMC45LDkyLjA1IEMxNzcuNjUsMjUyLjI2LDE3OS41MiwyNTMuNDcsMTgxLjUzLDI1NC4yNXogTTE5Mi4wNCw2OS44OUwxMTUuNDgsMTI4bDc2LjU2LDU4LjEyVjY5Ljg5eiIgY2xhc3M9InN0MCIvPjwvbWFzaz48ZyBjbGFzcz0ic3QxIj48cGF0aCBkPSJNMjQ2Ljk0LDI3LjY0bC01Mi43NS0yNS40Yy02LjEtMi45NC0xMy40LTEuNy0xOC4xOSwzLjA5TDMuMzIsMTYyLjc3Yy00LjY0LDQuMjQtNC42NCwxMS41NSwwLjAxLDE1Ljc4IGwxNC4xLDEyLjgyYzMuOCwzLjQ2LDkuNTMsMy43MSwxMy42MiwwLjYxTDIzOSwzNC4yM2M2Ljk4LTUuMjksMTctMC4zMiwxNyw4LjQ0di0wLjYxQzI1NiwzNS45MSwyNTIuNDgsMzAuMywyNDYuOTQsMjcuNjR6IiBjbGFzcz0ic3QyIi8+PGc+PHBhdGggZD0iTTI0Ni45NCwyMjguMzZsLTUyLjc1LDI1LjRjLTYuMSwyLjk0LTEzLjQsMS43LTE4LjE5LTMuMDlMMy4zMiw5My4yM2MtNC42NC00LjIzLTQuNjQtMTEuNTUsMC4wMS0xNS43NyBsMTQuMS0xMi44MmMzLjgtMy40Niw5LjUzLTMuNzEsMTMuNjItMC42MUwyMzksMjIxLjc3YzYuOTgsNS4yOSwxNywwLjMyLDE3LTguNDR2MC42MUMyNTYsMjIwLjA5LDI1Mi40OCwyMjUuNywyNDYuOTQsMjI4LjM2eiIgY2xhc3M9InN0MyIvPjwvZz48Zz48cGF0aCBkPSJNMTk0LjIsMjUzLjc2Yy02LjExLDIuOTQtMTMuNCwxLjctMTguMi0zLjFjNS45LDUuOSwxNiwxLjcyLDE2LTYuNjNWMTEuOTZjMC04LjM1LTEwLjEtMTIuNTMtMTYtNi42MyBjNC43OS00Ljc5LDEyLjA5LTYuMDMsMTguMi0zLjFsNTIuNzQsMjUuMzZjNS41NCwyLjY3LDkuMDcsOC4yNyw5LjA3LDE0LjQydjE3MS45N2MwLDYuMTUtMy41MiwxMS43NS05LjA3LDE0LjQyTDE5NC4yLDI1My43NnoiIGNsYXNzPSJzdDQiLz48L2c+PGcgY2xhc3M9InN0NSI+PGxpbmVhckdyYWRpZW50IGdyYWRpZW50VHJhbnNmb3JtPSJtYXRyaXgoMSAwIDAgLTEgMCAyNTgpIiB5Mj0iMi42NTk4IiB4Mj0iMTI3Ljg0MzkiIHkxPSIyNTcuMzQiIHgxPSIxMjcuODQzOSIgZ3JhZGllbnRVbml0cz0idXNlclNwYWNlT25Vc2UiIGlkPSJTVkdJRF8xXyI+PHN0b3Agc3R5bGU9InN0b3AtY29sb3I6I0ZGRkZGRiIgb2Zmc2V0PSIwIi8+PHN0b3Agc3R5bGU9InN0b3AtY29sb3I6I0ZGRkZGRjtzdG9wLW9wYWNpdHk6MCIgb2Zmc2V0PSIxIi8+PC9saW5lYXJHcmFkaWVudD48cGF0aCBkPSJNMTgxLjM4LDI1NC4yNWM0LjAzLDEuNTcsOC42MywxLjQ3LDEyLjctMC40OWw1Mi43MS0yNS4zNmM1LjU0LTIuNjYsOS4wNi04LjI3LDkuMDYtMTQuNDJWNDIuMDIgYzAtNi4xNS0zLjUyLTExLjc1LTkuMDYtMTQuNDJMMTk0LjA4LDIuMjRjLTUuMzQtMi41Ny0xMS41OS0xLjk0LTE2LjI4LDEuNDdjLTAuNjcsMC40OS0xLjMxLDEuMDMtMS45MSwxLjYzTDc0Ljk5LDk3LjM5IEwzMS4wNCw2NC4wMmMtNC4wOS0zLjExLTkuODEtMi44NS0xMy42MSwwLjYxTDMuMzMsNzcuNDVjLTQuNjUsNC4yMy00LjY1LDExLjU0LTAuMDEsMTUuNzhMNDEuNDQsMTI4TDMuMzIsMTYyLjc3IGMtNC42NCw0LjI0LTQuNjQsMTEuNTUsMC4wMSwxNS43OGwxNC4xLDEyLjgyYzMuOCwzLjQ2LDkuNTIsMy43MSwxMy42MSwwLjYxbDQzLjk1LTMzLjM2bDEwMC45LDkyLjA1IEMxNzcuNDksMjUyLjI2LDE3OS4zNiwyNTMuNDcsMTgxLjM4LDI1NC4yNXogTTE5MS44OCw2OS44OUwxMTUuMzIsMTI4bDc2LjU2LDU4LjEyVjY5Ljg5eiIgY2xhc3M9InN0NiIvPjwvZz48L2c+PC9zdmc+;" parent="FI-kgKAkl0UwsvHkJetG-28" vertex="1">
          <mxGeometry x="69.78999999999996" width="110.43" height="110" as="geometry" />
        </mxCell>
        <mxCell id="FI-kgKAkl0UwsvHkJetG-15" value="&lt;font style=&quot;font-size: 24px;&quot;&gt;Visual Studio Code&lt;/font&gt;" style="text;html=1;whiteSpace=wrap;strokeColor=none;fillColor=none;align=center;verticalAlign=middle;rounded=0;" parent="FI-kgKAkl0UwsvHkJetG-28" vertex="1">
          <mxGeometry y="115" width="250" height="30" as="geometry" />
        </mxCell>
        <mxCell id="FI-kgKAkl0UwsvHkJetG-29" value="" style="group" parent="1" vertex="1" connectable="0">
          <mxGeometry x="780" y="490" width="100" height="160" as="geometry" />
        </mxCell>
        <mxCell id="FI-kgKAkl0UwsvHkJetG-8" value="" style="shape=image;verticalLabelPosition=bottom;verticalAlign=top;imageAspect=0;aspect=fixed;image=data:image/svg+xml,PHN2ZyB4bWxuczp4bGluaz0iaHR0cDovL3d3dy53My5vcmcvMTk5OS94bGluayIgeG1sbnM9Imh0dHA6Ly93d3cudzMub3JnLzIwMDAvc3ZnIiB4bWw6c3BhY2U9InByZXNlcnZlIiBzdHlsZT0iZW5hYmxlLWJhY2tncm91bmQ6bmV3IDAgMCA5MC42MyAxMjIuODgiIHZpZXdCb3g9Ii0wLjAxMjU0NjUzOTMwNjY0MDYyNSAwIDkwLjY0MjU0NzYwNzQyMTg4IDEyMi44NzcxODk2MzYyMzA0NyIgeT0iMHB4IiB4PSIwcHgiIGlkPSJMYXllcl8xIiB2ZXJzaW9uPSIxLjEiIHdpZHRoPSI5MC42NDI1NDc2MDc0MjE4OCIgaGVpZ2h0PSIxMjIuODc3MTg5NjM2MjMwNDciPjxzdHlsZSB0eXBlPSJ0ZXh0L2NzcyI+LnN0MHtmaWxsLXJ1bGU6ZXZlbm9kZDtjbGlwLXJ1bGU6ZXZlbm9kZDtmaWxsOiM1MzgyQTE7fSAuc3Qxe2ZpbGwtcnVsZTpldmVub2RkO2NsaXAtcnVsZTpldmVub2RkO2ZpbGw6I0U3NkYwMDt9PC9zdHlsZT48Zz48cGF0aCBkPSJNMjkuMTksOTUuMDNjMCwwLTQuNywyLjczLDMuMzQsMy42NWM5Ljc0LDEuMTEsMTQuNzEsMC45NSwyNS40NC0xLjA4YzAsMCwyLjgyLDEuNzcsNi43NiwzLjMgQzQwLjY4LDExMS4yMiwxMC4yOSwxMDAuMzEsMjkuMTksOTUuMDNMMjkuMTksOTUuMDN6IiBjbGFzcz0ic3QwIi8+PHBhdGggZD0iTTI2LjI1LDgxLjU4YzAsMC01LjI3LDMuOSwyLjc4LDQuNzNjMTAuNCwxLjA3LDE4LjYyLDEuMTYsMzIuODMtMS41OGMwLDAsMS45NywxLjk5LDUuMDYsMy4wOCBDMzcuODMsOTYuMzIsNS40Myw4OC40OCwyNi4yNSw4MS41OEwyNi4yNSw4MS41OHoiIGNsYXNzPSJzdDAiLz48cGF0aCBkPSJNNTEuMDMsNTguNzZjNS45Myw2LjgyLTEuNTYsMTIuOTYtMS41NiwxMi45NnMxNS4wNS03Ljc3LDguMTQtMTcuNUM1MS4xNSw0NS4xNSw0Ni4yLDQwLjY0LDczLDI1LjEgQzczLDI1LjEsMzAuOTQsMzUuNiw1MS4wMyw1OC43Nkw1MS4wMyw1OC43NnoiIGNsYXNzPSJzdDEiLz48cGF0aCBkPSJNODIuODQsMTA0Ljk4YzAsMCwzLjQ3LDIuODYtMy44Myw1LjA4Yy0xMy44OCw0LjIxLTU3Ljc5LDUuNDgtNjkuOTksMC4xN2MtNC4zOC0xLjkxLDMuODQtNC41NSw2LjQyLTUuMTEgYzIuNy0wLjU5LDQuMjQtMC40OCw0LjI0LTAuNDhjLTQuODgtMy40My0zMS41Miw2Ljc0LTEzLjUzLDkuNjZDNTUuMiwxMjIuMjUsOTUuNTYsMTEwLjcyLDgyLjg0LDEwNC45OEw4Mi44NCwxMDQuOTh6IiBjbGFzcz0ic3QwIi8+PHBhdGggZD0iTTMxLjQ1LDY3LjY0YzAsMC0yMi4zMyw1LjMtNy45MSw3LjIzYzYuMDksMC44MiwxOC4yMywwLjYzLDI5LjU0LTAuMzJjOS4yNC0wLjc4LDE4LjUyLTIuNDQsMTguNTItMi40NCBzLTMuMjYsMS40LTUuNjIsMy4wMWMtMjIuNjgsNS45Ni02Ni40OSwzLjE5LTUzLjg4LTIuOTFDMjIuNzcsNjcuMDUsMzEuNDUsNjcuNjQsMzEuNDUsNjcuNjRMMzEuNDUsNjcuNjR6IiBjbGFzcz0ic3QwIi8+PHBhdGggZD0iTTcxLjUxLDkwLjAzYzIzLjA1LTExLjk4LDEyLjM5LTIzLjQ5LDQuOTUtMjEuOTRjLTEuODIsMC4zOC0yLjY0LDAuNzEtMi42NCwwLjcxczAuNjgtMS4wNiwxLjk3LTEuNTIgYzE0LjcyLTUuMTcsMjYuMDQsMTUuMjYtNC43NSwyMy4zNkM3MS4wNSw5MC42NCw3MS40LDkwLjMyLDcxLjUxLDkwLjAzTDcxLjUxLDkwLjAzeiIgY2xhc3M9InN0MCIvPjxwYXRoIGQ9Ik01Ny42MSwwYzAsMCwxMi43NywxMi43Ny0xMi4xMSwzMi40MWMtMTkuOTUsMTUuNzUtNC41NSwyNC43NC0wLjAxLDM1QzMzLjg1LDU2LjkxLDI1LjMsNDcuNjYsMzEuMDMsMzkuMDUgQzM5LjQ1LDI2LjQxLDYyLjc2LDIwLjI5LDU3LjYxLDBMNTcuNjEsMHoiIGNsYXNzPSJzdDEiLz48cGF0aCBkPSJNMzMuNzEsMTIyLjQ5YzIyLjEzLDEuNDIsNTYuMTEtMC43OSw1Ni45Mi0xMS4yNmMwLDAtMS41NSwzLjk3LTE4LjI5LDcuMTJjLTE4Ljg5LDMuNTUtNDIuMTgsMy4xNC01NiwwLjg2IEMxNi4zNCwxMTkuMjIsMTkuMTcsMTIxLjU2LDMzLjcxLDEyMi40OUwzMy43MSwxMjIuNDl6IiBjbGFzcz0ic3QwIi8+PC9nPjwvc3ZnPg==;" parent="FI-kgKAkl0UwsvHkJetG-29" vertex="1">
          <mxGeometry x="9" width="91" height="123" as="geometry" />
        </mxCell>
        <mxCell id="FI-kgKAkl0UwsvHkJetG-18" value="&lt;font style=&quot;font-size: 24px;&quot;&gt;Java&lt;/font&gt;&lt;span style=&quot;color: rgba(0, 0, 0, 0); font-family: monospace; font-size: 0px; text-align: start; text-wrap-mode: nowrap;&quot;&gt;%3CmxGraphModel%3E%3Croot%3E%3CmxCell%20id%3D%220%22%2F%3E%3CmxCell%20id%3D%221%22%20parent%3D%220%22%2F%3E%3CmxCell%20id%3D%222%22%20value%3D%22%26lt%3Bfont%20style%3D%26quot%3Bfont-size%3A%2024px%3B%26quot%3B%26gt%3BAnaconda%26lt%3B%2Ffont%26gt%3B%22%20style%3D%22text%3Bhtml%3D1%3BwhiteSpace%3Dwrap%3BstrokeColor%3Dnone%3BfillColor%3Dnone%3Balign%3Dcenter%3BverticalAlign%3Dmiddle%3Brounded%3D0%3B%22%20vertex%3D%221%22%20parent%3D%221%22%3E%3CmxGeometry%20x%3D%22250%22%20y%3D%22412.5%22%20width%3D%22100%22%20height%3D%2230%22%20as%3D%22geometry%22%2F%3E%3C%2FmxCell%3E%3C%2Froot%3E%3C%2FmxGraphModel%3E&lt;/span&gt;" style="text;html=1;whiteSpace=wrap;strokeColor=none;fillColor=none;align=center;verticalAlign=middle;rounded=0;" parent="FI-kgKAkl0UwsvHkJetG-29" vertex="1">
          <mxGeometry y="130" width="100" height="30" as="geometry" />
        </mxCell>
        <mxCell id="FI-kgKAkl0UwsvHkJetG-30" value="" style="group" parent="1" vertex="1" connectable="0">
          <mxGeometry x="490" y="490" width="137" height="170" as="geometry" />
        </mxCell>
        <mxCell id="FI-kgKAkl0UwsvHkJetG-9" value="" style="shape=image;verticalLabelPosition=bottom;verticalAlign=top;imageAspect=0;aspect=fixed;image=data:image/jpeg,/9j/4AAQSkZJRgABAQAAAQABAAD/4gKgSUNDX1BST0ZJTEUAAQEAAAKQbGNtcwQwAABtbnRyUkdCIFhZWiAAAAAAAAAAAAAAAABhY3NwQVBQTAAAAAAAAAAAAAAAAAAAAAAAAAAAAAAAAAAA9tYAAQAAAADTLWxjbXMAAAAAAAAAAAAAAAAAAAAAAAAAAAAAAAAAAAAAAAAAAAAAAAAAAAAAAAAAAAAAAAtkZXNjAAABCAAAADhjcHJ0AAABQAAAAE53dHB0AAABkAAAABRjaGFkAAABpAAAACxyWFlaAAAB0AAAABRiWFlaAAAB5AAAABRnWFlaAAAB+AAAABRyVFJDAAACDAAAACBnVFJDAAACLAAAACBiVFJDAAACTAAAACBjaHJtAAACbAAAACRtbHVjAAAAAAAAAAEAAAAMZW5VUwAAABwAAAAcAHMAUgBHAEIAIABiAHUAaQBsAHQALQBpAG4AAG1sdWMAAAAAAAAAAQAAAAxlblVTAAAAMgAAABwATgBvACAAYwBvAHAAeQByAGkAZwBoAHQALAAgAHUAcwBlACAAZgByAGUAZQBsAHkAAAAAWFlaIAAAAAAAAPbWAAEAAAAA0y1zZjMyAAAAAAABDEoAAAXj///zKgAAB5sAAP2H///7ov///aMAAAPYAADAlFhZWiAAAAAAAABvlAAAOO4AAAOQWFlaIAAAAAAAACSdAAAPgwAAtr5YWVogAAAAAAAAYqUAALeQAAAY3nBhcmEAAAAAAAMAAAACZmYAAPKnAAANWQAAE9AAAApbcGFyYQAAAAAAAwAAAAJmZgAA8qcAAA1ZAAAT0AAACltwYXJhAAAAAAADAAAAAmZmAADypwAADVkAABPQAAAKW2Nocm0AAAAAAAMAAAAAo9cAAFR7AABMzQAAmZoAACZmAAAPXP/bAEMABQMEBAQDBQQEBAUFBQYHDAgHBwcHDwsLCQwRDxISEQ8RERMWHBcTFBoVEREYIRgaHR0fHx8TFyIkIh4kHB4fHv/bAEMBBQUFBwYHDggIDh4UERQeHh4eHh4eHh4eHh4eHh4eHh4eHh4eHh4eHh4eHh4eHh4eHh4eHh4eHh4eHh4eHh4eHv/CABEIAZABkAMBIgACEQEDEQH/xAAbAAEAAgMBAQAAAAAAAAAAAAAAAQIDBAUGB//EABoBAQACAwEAAAAAAAAAAAAAAAABAgMEBQb/2gAMAwEAAhADEAAAAfrpPOywASQAAASQASQAAAAmAAmAAAAmAAmAAACRIAAAAAAAAAAAAAAAAAAAAAAAAAAAAAAAAAAJCSEpQkQmIABAAAAAAAAAAAAAAAAAJCZCZiEzKEpiEiIsiapiEJRMCAQAAAAAACQAAAAAACS0JTKGPiY8noHl9TBtezeA1MWx9Jp8vw4s/wBL2/n/AG8Gr6hob/Z5qLRkiItFUJiJCAAAAAAAAAAAACS0JLJc3Fq5ev5bex6G15jH278Hs8B6O0R5vZ7uScV6UtTSw7MRkdrL53peh0ujCerrVTETCVZgQAAAAAAAAAAEyTE2hhzcul/MbenbxfpN22O2HBea7E46Zb0tirkxZS+ru6kxSawy5b60I6PU83l6Ov6VzOl6LnkxmqiVZgAQAAJiRIgkgBIhICYkm0R570Pk+bu6dctfNduu7g6tNeLTVqRSaRkrn19gy47pxaMZMLZmELoRMs+vF49fbkdj1/DqlmpAiYShCRCQAAAACBMolMokvGLyXo/Pec6mO9tzj7lrQrqzVCYpNIyV2tTbRZC2KNLe1mXDCLZ0IWQhOT1vju119Dspei5URKJhMQJiARIAATAkiSRKYCwYIczm7NfG9ibVnUmUCaqpUmi8bentK2mqaWqGlXPr22UIm5EJXxxZ7W/E7fsfPDj3jd8zznlu77Xc8P6/r8zYTHS0wABIFidDT08vbxefxc/Y7mnznPz5NLNg1NrfnQ3MVLqyiUBCqVJrF2zq7KszVNLKidHewTfWhF9lCEoRM5PZeHw9LV7Hm9XJrdPZya2TTvv+34/c9N5uYmOloACQLFb86tvK7nH6nh/SZVGPFdRKcdomdaufXvk6eThdKMW2hTEhVKlqRe2fXzzSZqmtlRaIk0qbenfYQrbLMREzOO8J4VtjSydHZ6nG+i7fO6cnp/KolCEgCJibJ876Lxmnucrc08/kfRbrHOHWvNErKhjvWZ19foVy2r0eIV7cUtiwRWa1vfLhyzSZqVsqLK6Vp39fme06FPLU95r9LB4qPXauvn81Hb1tbY5PD9RyabvQ97qbXpvMyNjVCAASSTD517z51x+1mz4Op53qWteY0aTaYii8mOMpFMWdM6Gp1Ne+fl9XT07Zu/XQ3dfBlvjvGOWtzb37HO5mbJsRbLkrk2Peef8AQ+o87A6mgCREJrZCEiBEhATIERJZxPGei5nm/SZdjFPJtlYpVysZGWcSGVjIyZNeUZ8OzDHz9Xqa9s/Gvual9nd59MqdXY2MqcOXNfFixWy704vQ7Ex7nzQAAAQBKACCSYCSYrZ4vBxOv4r1uWYjBS6lbM04ZMs4iMzERmYpRt7fJ6ca0YdvHFNHD0MVs2hO4X175rVjDOVWMff897DsaOQel5YQCAJAAhIhIIII5Vb9bn+Mtzunyp2N/g9+9t3SwaCU69qVzTdqxt1vbXnJjvaWNNsmbVlT0dNToU5eCmxU142McXxxGKMlsU0rl1ff/OvovrOaQ6fOlCqUCUImUJiUCUCUCFVbWVmXG8371pbnz728btJ4XnPa+B5+/wBKcGxwdpJFUpmEiMXb839A9Nz/ACvM97GxT5/6TlYOB0e/hx4tTUtimlc8UmsZY1s/ByZur77ynqfZ8OURm1LKoSgSgSgSgSgWVFVYx3vNEsii0ZFJtFvnv0Dx/N6XL3+Xn833OlNMmvppSiOD0vP7mb3noMM+x83mYVseDwv0LyPI6u5WjzWdSaVyRWaRePJeh81ub30/rYMnrvJ2ipWysQuohdQXVgurBdWC6iVVGHJdRLIxVNiNfEnc4W7r48/j82nl836jf6PF28Wp0avNtfW9L5P3vcy9Vpujw9xpjc1azFuZlrXyXRtSKYr2pWGTjYLbnb2fezzbdfzfRtzb1joNS6NlhvNLqJXUF1BdQXUkohjvMBWuSInHh2qLaeLfqt4bD76uLe8Jk9tEPNd7NGTXxxkXx410TReCs2HK4/rZxZvHV9nNcnjdr1EzGCc05tXA2ZhrX2LxGHJksrW8TakoTEoEoEoEzWZiqFLSgSgShKUSQkVWFFxjjKTiZYhjjKMbKMU5EsbIRRcVWgiSEoEoEoEoEoEoEoEomUCAAAAACYEwAAAAAEoAAAAAAAAAACYmQAAAAAAAAAAAAAAAAAAAAAAAAASAAAAAAAAAAAAAAAAAAAAAAACH/8QALBAAAQMDAgYBAwUBAAAAAAAAAgABAwQREgUgEBMUITBAMSIyUAYVI0GAJP/aAAgBAQABBQL/AFWRgKespWQEJt+IkPAH1ONFqjotTqEWoVboqqqdFJK/Cip8kBHG8FSJ/idRpMHsrLFcsl08rqGjJzxazinFRTlGgMTb8G9ZHd61l1hJ6mQm5YJhHZEn7Pmrs6cV3F4qi/4KYsImd2dnvtZl8J1EpG7cL2Wa7Oo5CjUcgn+A1IrU6F7Jn4iHF1F8I2s+xidk0ihqUz397UyvJwF7IGyQizcXTqP4Rtdt8UxxuBZD7lS+U/CMMnFmFtjqP7eEjWffp8nb25Sxj4COTizM210H28Ca7b4ycDB2IfarntCmG7i1m3t8cZG8GnSe3Xvc7d2a3lfuz74ycDAmMeNROEInVSFJTTjMHpHNGCmLORvD/e2VvBpsvbhW1owo5CkJnUMhRnTyc2PylIAoqmNkVUaOWQk/cvE3zt/p2s+6M3CQDEgr9RV0zpnUAPLJGLAHiOqjFyqydFLIWx0SCW3iH7t0jdt9VNLyGdM6Z1daVBhH4jfEYZHctzomQSFGgJibePzvNrPuNshfs7OmdafDz5/68WoljRh2dnu250TK5AUMzHvD53yNdt9UKZMtNp+np/HrZ/xson8DomRDZQ1G4PC8ZE7sTbjbIXaz6JTc2byauV6tkPhZrohRiopijQkxNxDedSDJ5TNafFyqZPDE6KjgdFp4ItONFQ1DIoJhU0BnLSQjTweSpPmVDIU0fblsuWy5bLlsuWy5bLlssbM7IhRihcoyilGRuA7CMRaSrREZoRVJFzZ/Vqiwp2QqMcfE7J2RMjFOzs8M9+A/CklCNHVE6sROwphVlpMfrayeNIPdRDj4xTsnZEyIUYKKVwRVEYtJUSmmFMCYUzKysqcOXD6uuFeSIcW8d03dnZOyJkQogWCYEwphTCrKyoo85/Wq5BkreN1dX8ERd07J2TsnFYrFMKsrK3DTwtH6pPYSN+dGbGPgurq/GEshTsnZOyxVlZWVuBkwjG2Mfq6keFE7KMnjJtmKxdd98J4ErKysrKytwd06lfKo9TUjlGHr6qNPXzVcbstOpeon1IeXVbsWTxpxfbSSXbhZWT2ZOWzTv5td9Ws06KduilpkwOT0cLQQ6yF4Yy8MpCIft4PHJp8rI4pAQFiUZMYpyZOW2oPlxfpYLy+t8oaaIZlWBzKZlGXg07/t1Pjq8XKmoZ3Yne+/VD7fpoMaH2qkeXUM6Artt1OosOg0/T0PGti51PF9Eu51UlnNpAYad7WshjUM6F7IXu3Grm5MdDC9VWs9myWSyV1qUWE4vcX21R4RM13ibGP17q6yWsNlTs6Z0BWQvdkZMAzyPLJocWAZrNZrNZqqbmxQ/Ztrj+qjHKryWSyV1f0rq6unJZKf64rpiTEyjks92VfJPJI0VU6pvph4X2E2EmTLJlkyyZXupKGtOSjoqmKdidZLJMaYlkr+m6sjY7SafVOfQVi6KtTUVaqemqQLw1cc8jPS166bUF02oLpK9QUtYEg3tsZkzKyb07LFYrFYrFYrFYqysrKysrKysrKyxWKxWKxWKxWKxVlb2rKysrKysrKysrKysrKysrKysrK3+cf/xAArEQACAgECBQQCAgMBAAAAAAAAAQIRAwQSBRATITEgMEFRFDIiQBVgYUL/2gAIAQMBAT8B/wBux4MmX9ER4bqH8EeDZn5aI8DfzMz6CEHthLuShKDp/wBNafI/g0+PNhnuR+VR+Y/onrcldjuSqSqRk07j3j/RxQ3zUSUbGSaRdkv1Mb+CjYjLptxPHKD7+/oY3kv6LM2RLweRE/Auwu/OUFJUzLj6c3H3tDGotk8lckIn4KMb+PRrsVx3r3Um/Bi/hBLmhE+cXa5uNqjNj6c3Ex45ZJbYmDQxxL+Xdmr0vRdrx6o6fJL4I6J/LI6WCIQS8EotehE+eN0/RqNH+Q1Rg0kMEaiNGvz9Se1eF6ccd81Ey468FFcl37MniruuaJefRB2uaIPdGziOo6GPt5fq4dDdnX/DIrKKK5KdEsSfeJQiXnnGDl4NRN6aN/JHif3EjxHE/JHV4X/6NPqIL57Gt1P5GVy+Pj1cHh+0zLLaXIuRci5FkJjipji4+RkcUpEcEV5LOI5t+Wvr29Aunpr+x2+5RRRQ4ikRmKSkqYowiPIOZky7YuQ3bv2+h0oJcqNptNptM0K7ikRmbzcWa6bUEvv2scN8lEx8LyxmpPwZc0ccHKXgxz3wUvvluZvLTKHC1RJOEqYpCYkJHEu01H/nt4Nflxfx8o1ms66UV4OGS34dv0NV6NZnnjkoxZj4nkX7dzJHr4lliRh9iQjHDdKjXy3aiXs0UUUcKnWXb9mSFj5YoUnkl4Rlk8k3J/JtOG5avE/koSEjTR7bjI903Ioooooooooo2mw066eRSHEy47McN0qfY4hkj0tkGdM2EVtdo/buJCQ8+KOJpPudI6ZsKKKKKK52Jm4XEcv2f5DKZMzyO36YaiUFSPzJj1k2qLNxuN3u2WWWWWWWX/q3/8QAKxEAAQQBAgUEAQUBAAAAAAAAAQACAxEEBRIQICEwMRMUQVEiMkBCYGEj/9oACAECAQE/Af6rSpUqVKlX7KlJPHF+so6jjj5R1WL4BR1b6ahrNP8AyHRRTMmFsKr9k7UMdnlyy87EmZtK9Reot54RSvhdbCsTVWS/jJ0K8qu/O/04i5PF9exiahJB08hQZMc4tp7wWrSbYdv3wcOI5WPcw7mrHmE0Yd3tYkuQM+lfIObSsjY/0z89ulSLg3qVmS+pM53KOZri02FjSiaIOUsrIm7nFZmoyTO/HoFp+d7gbXeRzS6hjxdCVJrY/g1SapkP+aRkc824ojsA8mBm+3sHwsmd87rciFpmL6TNx8nlkdtYSpOpvkBRb2ByeVg4vrSdfA5tQftgP+p3C+FppTmX45gLWBh+4fR8J2jH+Lk7SZx46p2DO3y1Nje00QsWD0Y6+ebV39A1OW1UqVcAUWhyc0t88GsJWwDyi5aTDsh3H57epyXMf87AK6OFFBrWouRKijMrw0fKY0NaG9rwsl5Mheg8di1fHRod0hf9dqSQRtLipNSjdE6vKhYZnbB8rJhMEhZwDyhIg4HmvhpMWyG/vs2rWTgRzDp0K07A9uS53lavF/13faIrk0vAaYy6QeVLpETv0mlkQGF5aVfGJu54CxRUQVq1atWrVq1a3Lcty1Rm6Ld9Jzb44kO91lMpjQ0LctVi3N9QcmK35TfxaArVq1atWrVq1a3repvzjLUQnstQwulNBYsJY6yt63p9PbtKljMby08KJUOK5tLet63rcrVq1atXy+gz6Xt4/pMY1n6VatWrT4WONkL28X0hjxjrXJXC1atWr/sv/8QANBAAAQICCAQEBQQDAAAAAAAAAQACESEDICIwMUBBURASE2EyUoGRIzNCUHEEYoChQ4Kx/9oACAEBAAY/Av5V2ngeq+cz3XM0x+0l0CYbKTHFWaH+1JrAvmQ/AU6Z6nSOPrw6jsNFFpUHWT9p6rBZ17VPCV4Ch1JN1UuMDMKLT9k1Kkz+14QoSWCwFQ1YtMFB8vsTnbBRuTVnwlMKX2CG9ad7aUs81uwykjLZBwzrj349lAZHpn0zjndrsXYcEHDXNw3v43Boz6ZsDLhw0QcKkXY6Bc8YbBR11GTtOAROQjcdI+nHlbaeuZxieHM1B4vpuClEqQAU3FAZkPGi54yXT/Tn/aoGDVBo0uyMVZEFNxrQd75GNwKMOsa1eq7F2F2XHRGOs7ncKIOXIUOIH0iZvHn0UbqLVsdsvzcRHxmZvGUe5jwhdSXLSe9+SwR/CmCK0FBdV3hZ/wBveXyi+gZtUQbuVpYwTdzMrBTo2rww9VZe4KzSArAFTo3eyaGtmTBNom6Xr37mpqtVieOq1qxau+1eLiAvhiKtO4NZ75Z7thkYhcr5HepaKsCCi4k1HUvoMty+Yw4d7uFaDptUplSsjtXa3LUdGPyu+aHaeXpCPplfQvebzZYlGkGpiojMk7IDtlqQ7iHCOmZoKEYvpB7ZX4YPcjRSpI/lGjpGtlOXCYsNxXZwvuQ+l0NqMHLRbYfujzjXELlGJQZrqmv8puolNmWuhNWSHK2whAhBwuHO7KnpTsBmOoBPg9usJcIXAP8AhoJ/k1Oo3wuXIdbgUfqnO8zs29mxuOiwzOKBPipLRqOZroh2NwXKhG4jmw/zCv8AuOCa06mLlCrztwcgaxQCa0aDN83lNYuOCLinUxxdIViNVCsGbKjH7s45m4q4rkZQ0hYO2K+Q9NbykQGtc7GsXQbPum0p5JKebsQj3RcHMmsWL6FixAvcwi6hRuYF46NeKjWNGvFRoOc+jkp4/wA1v//EACsQAAMAAAQEBgICAwAAAAAAAAABERAhMUEgUWFxMECBkaGxwdFQ8IDh8f/aAAgBAQABPyH/ACnmHqep8scGu+nRApH/ABKnsCxMxT8IfvBe0vtfybU7E+tTh8rT4OyfQ59TKK/JA/Ev+JsZpoQZZt6Jsvo70FpPoHxCM81Ylqpi0mP/AO6dGfh05fwirJKTmR+wB7KBwZS+gqaRPT2hJchGxmdcipUTLXMXTFNBZ8Mhe5c9hZ5r+B6zDOu2opKhYLBz7CSxKlbrFNocFyqXe9z4oMS5s+Twfnu9cIMfoIaqwRuezB4NTuamQ7cDNAZBpyPmhDya9RCVqvPctbe40QY3Qfp05nWXzGPE+/DvC42VFNzCNANVed9OhCDeXuYgIiWDGPBoYUzDZ+BVmaZ+cdDKGND4bbsgloXBjHg+BjlA+PXbTNFhL5vvpCDpIRJcDGMZpcEnG/gXTWmfm3QdUTOCScLGMYtOBaJiRtPj10mHBVNZcFuZtDViLpnkaEgyX0PJ/csIW5p6dhJwsYxmzi2HrxsszM9cVKfI2XcZX37vASHRr5ErDV1XhrHQJ6m+Ae/cG0LkJ1xiwvCxjNHvxPOGWlx6yjUS0zFaa/efqW3W68Q1J29jTLSLw1ArJxw047j6RFwuJUZO8TGM0OKlobeAixK8i4AEMgvqLw06ISso/Nn6ilKUo8FhhH2TN6XCxj8HyHbbjSx3Eb21WINer6HkJJIkol4fNhr5DNCbExlKUpRiYCpU/IjnCmM1OK4dxWL4ZtLvkxh22ks2yCX7Xl4kEuY9P+4ckUpS4sTAY1yNGdoPYW6YMYzU/BYBXeLB7O+IeFxSx9GOe2qHS+V18RsduKwtHSlKUpcGXXGXOb9At1JjGM3Y0uDaSrcMpzumhy45IUk1+cGk1GNfHobv7A38hGIfJKGgdqz650MITRBJGjN83u/E2OozO22BW3FqKit3odUdXAnVZ1WdUdcJILgxrjutmZYy3MMZpxpJE6iNO6egzzn02wOU1vYJRJLwGlbF4vVtZqFbcSzFp1KUpSlKUvCa3S01uj2SbHwC7JvJamXx83qZkDrjiM0xf0z8tk7Vfo1/AtJLUirFKUpSlKUo14huT7/IjPbpIyBgPbr4KUVngvlKz7+WfmCJx3F0YpSlKUpSlKKHSLLiN7Xpw2Cws5rLO8uxStvTP90pS8ApSlKUpC2jGuI/rCIrAhfdZt8eVQp5olRFpmxuooeouRCGZSlKXgFKI661GvBFY0a7Yp07TyqIRrB65YfPJqjMk881RYRMadh7GY41RSlKUpFe2jMmqtBhh8AOLU5I11OaZOx1+V39eyG5ehaLKE6qs8ODzrr6EBzKPjbdjkP3E9r2wpSmdGa+A0NDwHB22QxjGv1+Oy+35Z27EWT7oSeeTyZiggorIkJ5m2bc2SDkejNh+CzLuyXN7IzdBUnVT9PbHc7mshmukzcIGhTqOfQYxjOiuTub4ki+7r+l5dpJGqjK3jTZdcJXm3vDlFWvHoqJlP8Awv8AemLSeTSY1WXt7JjjCJV3H6mMYxjGZKeuY6wvx5KlKUpSlw67E7EjvXCipzhWy5Ew/wBhL2wuCe8m5MqrJwYxsbGMY0Q3arF2P6a3mUpSlKUpSlKUpSlKXClKUomTfT5l/VgNaoXbgXVTQQaO2qHTcQhMktOEUwJm+u518WBjGMslq8kNW6twRp5KRcKUpSlKUpSlKUpSlKUuCSCWu185Y096IssH9xEelmuSJC+h4gJ2Fmu4/pMbGMY2Us5mI52guHVKUpSlKUpSl4KPDeGZzduISpxiuZzgvOeTE9VIXCHVag9i9tGV0ZQUuClKK2GaPmD5g+YPmENFm2MWmqH8vnyvQg5ihPiKCFLjfCY1gxWNsJDPE1mZP9guf7jcJ9WLIjbMWmcwvFTK4XU2jYO9GPDOTdVe446WyMyWXsxhGMGCCC8W8EGWH4RD3434NFBFCeXhPAPyThknwfyeRX+L/wD/2gAMAwEAAgADAAAAEP8A/wD/AP8A/wD/AP8A/wD/AP8A/wD/AP8A/wD/AP8A/wD/AP8A33333333333333333333333333333333077yrDDbz47333333377777777zgvoENI/D77777777zzzzzzz6Wrciyk/8AUV0888888888888+l8EMUMIr1ybsy+8888++++++6N8YGw8yIvvZ9tS8+++2y68yyFR+VqRMgyf89/ChAyywCCCCDLq0WsT5My1Yxc9l4ciGCCCBKiXM24a2OMNscKdtlCoWGiBAaEBabynYwkIamO2wX5vmbeCAaASbSs62gwlU5gMYjUNDD7CQwA8BVfiomz1gi6vOFIGQ+lvAAAAHLexpo5euMF5qwGD/AMNkwQAAA9sKnVZnruMvqBBSgwgAAwAAoQgPtVatlWSTpEGOB6gAgAAMMAfKKCLyfIFu1nc/VWCQwQgQQQT3qdK6wjpn/wCIcfi464/HHHHEETRRisJGKNwdEVTc4BgU88ccd05hRbYWq5GoXhpMinmtYsAgABrLJMacENFmtebtop/aoLrLLLKE008wjKOFCRwCBFFW08000001zzzzzzy57zzzzw7zzzzzzzzzzwAAAAAAAAAAAAAAAAAAAAAAAAIAAAAAAAAAAAAAAAAAAAAAAABb/8QAKhEAAwAABAMIAwEBAAAAAAAAAAERECExQSBRYTBxgZGhscHRQOHwUPH/2gAIAQMBAT8Q/wASlKX8Ol46XsKUpSlLwUpSlLwUpSlL2VLGbDZy72jSF5v4GPiX7GxhprdO4kGMpfwGzQnFSE3V1RGhMa9PUNuoXuJLmnTInI3wXrhe2Z1maFpVqIJcxu4uY3Bm1ORkJzLXn9kkon2rM57PfIRyjUZtWKIaaodJUJCRDNQ5h/IvY0uPWV+xDFqPN1iCC5MEnQkJCRG1F7frC8VxuDWJRXusHnmyCCC6EEoZ0JCQhzaMa8207heTWVuY1+kO3b6dMLwZ+oXUa+I2+94jiQa5kIJCCZohDIHuJCQkNTePS9CHu97vvw11fs3+uFqLdpeYh+TGSgiTYG7xEEhBRCEw5ISKTqEKQU1NtL5fh78WfuZ/3iQTgiUKIKdzkUnGIIIQZRKIT5s5BH1M3IvD6NJTxy9yhkfeHbay7n714qtnRfL+BadRu3HzDqHWE6eZER8mNIEzNJWRm71+hKUSiMgaZPHchCcbFK3M38fBbXD9EMThLCBnkr64wp5shzn1fBOJKuIrUkkl6ERL4QZl4UMLsznOS9v5C7CDVDl5kBGrTee1NGksxKnRKNiQJd0LTPCpzaMesIa9B71FoboVeb+oQhMIQhCDQgp9B/DG0K1Pv/Qhj7vR/ujmjGxvBzZNZvx0RkaL0P8AvARyz/1eGGUtBCQLTk55KCRCEIQhMDxFN9nqs/akfURpxjYjmg8jUzalDtlzLv39PYTpx4hFmHut235vswBtis6LteW/oWG5ksxCGxvRFVndY9kQST9ZCjTo8xpAXXyPzn3gZboc8QIJQQSJUIpKPJDZuvIpHMqKioqMoE7juvIcmaj6EkDUZbpCEIQhCcFFFFFFFFFFZSEIQhCD/Jf+kz//xAAoEQADAAAEBAYDAQAAAAAAAAAAAREQITFBIFFxgTBhocHR4ZGx8ED/2gAIAQIBAT8QhCEIQhCEIQhCEIQhCEIQniQhCf5IQhCEIQngQhCEIQhBIQWIYYYhCEIQhPASEhBwlFs0130T9xfUfj5F/M/oaheamv2Z1i/teQw0NE4oQhCEwSEh00i+Vf6Q0sbezS0fedyNiuRbIceplyP+15kDqOz+O40GGsIQhONCR5BJ/nb1NG1wSbJBajwhGfovbo/Y1et1uuw0NE45ikIQk3eiz+CiG6aDNXCtsjW4pu+vXcaITCcMIJCRPtnq/pIcFKPBRPgsNy0dftDRCDXBBISEEFdUl5kcdTeXRZL0WLxUonVihujQtO+vk9xzmS/siCZp0S16sV9tLn8jRMEJDR0tbLP69RTLvN+y+TLVLyU9dS0Dfm6MWvCmUpBkwhkLWzS8/srPotlgZf8Atrb8jwgkKc7Jv8FtbcpRMQ1GPWa0wuC4HqEsZFILTcfsu48sIIRlbkX92w3BRYFGYPLUoilGaBzXRFW/0LaD6qe7NpdD+Yakds/1Soib5oWrczfX6HihIyH5v2XuJWQSQQLIgKfMYQU2cXNjaRlZm97LJfJSlHBvgSESnIl7/tjIQhCCIYA26vHdY5khCNEouw2UpcYISHEozWabbG9RNPQhCEGhMQYbGKe6Jl1f0MfHRADaXImBqHLzeQipryDR5x6iEdxO6NCZCDUeDYw2Zm1ajZSlKUpRBBr1G690McU2yU5fYuNieq/kPePFFaz0J7IzBzflf3c141/UfKN48Q/f8j8EAoIISk3ejy/cFKNNOPCIjfLqbQESJRsZPpsPLBmp2k8hSQ/C/wDjD1UhqIKtSdNNSYYlpiUNBqGsAmOiciIdrSUbYIFXD6wqNGZWNubwBe0kvCGZkzyowSLUVlZngWXCCxUpSl8O8afHS8V8Nf6V/pR//8QALBABAAIBAwMCBgIDAQEAAAAAAQARITFRYRBBcYGRIDChscHRQPBQ4fFgcP/aAAgBAQABPxD/AOsVK+Kvl1K/wtSpXSpUqV/ia6VKlSpUqVK6V/hQ6VAlfIqV0T/BBAgTPSuZbeV0WGp94TZW5fdGqU7GvpcM6BkmYlxInSv5xr0CB0LX2LFPEZ9ypB2CbP4gj6cwa/D6S5ouwfxcvcLb8CXWW7I/MVW1V5lA2msaotb3mp5EVCLilycP4hnpUSJ0T+aEDoBEspIObmzatzh+kKHtH6JC59rSn3PJ9zNFiQsG2JUHKhoCcE4I2Wba+wysod9D5HVInRP5RCEcFxN6yoVZ5Z3G80fiNx5ZWVhlSZiesDbW3VmgrwITQnggHARK0EFICNGFoQmiMxQDzrB8t9mAbpXEJNISSsM7J1edogCCOid+iROifyA6E7wUeyctYPeOLXaxvDaWMUGKDM+Y3QSj3impeJjv7CLUWPW/qjODG5hhpyL2wiQLLlsem00iEt1DoInRP4xr0ITvMYdH0GfwRtL2ZWpCSWMGXUAtexMcSAUYCOKa2NEvhqyRYsWKYJK2ckzAPRdIGH4dfUhUjaI2MY69U/h11ISsyiXUPK/Qe/RY32tSUSea0ILg3FHHFFMb7qXLWjuEWLFixYsWcQ6m7uBInFihWbidalfPr4AhDpluyw8GPxGGK9kP+EMgCgi4ijjimHNb9ZfRhB3PWXFixYsWLH/Fg7n93jt0r+BUqV1Oh03kYeax9YFVcrrKJR2B6ENHQjC4ijjimAcJbLYTrXUeZcUcVFixbixYxRqteTue0V2yD1lSulSvhfl1KgdDphrk/Rq/aOUqB5doMOj7y+eixRxxzAuCXLl3K0MavMWLFi9FizVH1G3c/Pr0SVK6Wb9H5dda6B1rVxe8v/CVoQqnq7y5cuLFFHFbFQJcvmXB0EkbGkaixeixYtkUzCfJ3PaCaGV5msYmJSC6gyfrmXNK5GBtzCSGPZlb+JzH5AdagSuuAywJazUcvaIurzquEDE9ZcuXLiiijhkN2DiXzLly5aBaYhcx1ixYsWooGCl39zufn3hh6Crbij6vLiMTG1PobHE3JZ7GTsNniaElp2TXzH4w65SntFrVmtjs5e0FQ8Io92WIJzlDUauxo9iWhpk8RVL6Lly4sUUcy8KXLly5cImQSmMr205IsWLFixYjOBTc7kAcVSxRzBu41C08fv7QTcjaravUD50C9h3XxAUo3xh1qA2+AYE1LlmD75P6lpiPZUfSZ5WXFRwrkaTRIwLjQ/b9wwIiOiS5cuXFiijmXBLxLly5ccqub6avEWLFixYsWpYhTQLfZduPhAn0R4J/W/1HX4q6hG8pvgC4S2Wzk2w5dTyjhrHDcEOJnZ3e48Q0Bvc4YrLlxbiijn0iXLly5cs3l2U5lt3M+EuLFixYs0sTXjmB/S09QZ453tT8tPeEmBQBgOtdT4DWV80MeVU1GFcIBwl9B1D0bobeJeuu52GzLdwap15N5fMWLFijmu4l8y5cuX0XLatwjFiixYsWU/x/ovRJtRQGqyoUp3RGPRp5v4aldSGkDBxL6ZbwCj6/ROyZKdMnQdQsWZy4ZZ2hxlViNIywKaPYfO0CBVxYooprJcuXLly5cUC2BD7uDZqXJOzD9YuIrvERYsL3BXjmB/S0xBdUqmO36GvtNQfkkJrFcWzwC5/J0MYhcuHQ8uhi+m0pg+8svEvvED9tV38f1Djd8RRRRYXMuX1LioANVcETXR3/AHRtG3w/WUBw9bR7FEfCR1ExL9edUI/SaUjmIe2vEfxLt8k/tLH0z/Mv8Y1UHuXLJnKRl0X+9oUgOeXU8sN/lEcLxMvWWnBr6Ajgo1WgQ5b5YqH+yP1D/ZH6h/tD9T/tn6n/AGz9T/tH6j/tj9TJOjfWcUuvENvEwCHd+pM8V6jJ43Iopg/MuDGneIBjuqmexdsfs1+0twezA9CUViMAZ3Njl/XrCMAGA+PG0SEyaNafMNIJbVY81j6xrlqsFOU0BLO0vV24hzg4SSdexqzLCyamJfeJZeIZY1iUkBlGhofoYtzQlxJSHMvSX940z+zQ+sbBvurhnaVdpxTvdP5l9p26XLly5fzSGkvm+imX2HrFEKnAQcYoy7cQkk5wkk+HxlWppOOcUvHEuHE1sRagMD/WyHLWLB+72ljeu2r3mUCuqyrtKe045V2jIBa4AhgKT9TL9Zf8Q0ljiUG6o+zDNatXbghJJJ0ySTn8HYg5Iw6T9Jf2mtiW3iWXiW6EtCntAO04pR2lHaHCBlH0jT61HaPzw+A1h3lVBSPYKahYO8OcHCCDlDnDnCSTrzu9nhl5Lu01MS/tAe0c9JxSjtKu3ROifbgPDT63HSPy6lSpXxHGpa8BcWpmjc2jE+y4TVbRD2l+zEPb2mGsJJJOcOgRWHOCre1+3XOKcMeEJKQr0AFqEcIhKHfggUYVGtLDMdP4VjNCIZYCvWX6lfSZdIEFuDcP3FhQALKaSyCoEcRBitFg2ogaoekHDpnTLkRXLw8QBpaLE6XFOGJ2jx6KuQSnB9WIsrgZJQ+F9gPediP8C+ZfMsuIila1ngrJ57RVjzsPvzGhVDCs0IqTglozAzps9f2uEBQBRgTD9j3hlvtAgQ1gSjaa6TkxEe3xHcw9UVGkplpj03GI3bvs9PgUeEwi27ERgUjttYopRWem1iz/AE0l5YsvmXzL5l8y+ZfMuXzL5l8y+ZfMvmXzL5ly5iNOpAnEyZR/TJTDM7rKQY8OuGJbIB3WUi+R3X07Sj2bzwfsII34dGGkIHQIF9AgJ6JSyzQcqhB81yUVzh7Xsku0w0Lu98fWO6p3W3h0YkdXCL3YLrZ7kIJeg240mPumxHHFFDXaW9TB9UlTLYneyAukWXLly5cuXLly5cuXLly5cuDLHXWNDMUiWMrDJAXM9h2ZY4ij7JG4yfU6JkuGjvAvoQLhAiiJAC1e0KxOIdtJvhtP2glX2Jd6QtGOolkHWpkGHrW1mfeFUlZdB/r7R/J47R9Liijjd9KeDB+ZbJS7yAP3LixZcuXLly5cuXLly5cv4AdAgg4RcJxEcKKTlk+jGQjTDqaDqbwIHQOi6CjO/oe/HmDXrZTIP2qPlZeOi4vAw4zp+vWXMtCPbszR1hRRQkVwRnN+gjBL0KbHrT9E6GH+CAAC+oQQdBUeqK+n9n2dIy1JDQ17m07wIROysVvv4JZMb9at+7T1gYgABoBKVrKbym8rvO8qtaH7NfWb5CvmLEUcUcddReu9/a4ZOEPK1MPBtsAH4mpixjy+IFN/jA8vhAkmh3iXeN2sEdar0yfVOoAzk7m5BDWMsupkIEv4mAAcX+IgZePEdX1ftHnL7y+884c4jC8nsP7UdK1YmCKKPpERgfUf9feEPIt8Db9oIBekDvAveBe8CyvzAAEXLlxrAIveJWsU7xd4DPDxjWH3qMkpGkmxTZZVhdYv6w8gOjcb1gFQ3tdNoUEvuh+YAQxiC4y469peecvNKAV2vv8AeXdPvNp95tM2uBL2KA7svEWBWDtC9mC7uj8yhaY5rSG9NxE3jPfpXwt0XL6Lly5cuDLly5nGiNy9RHSXNh20slfMtQAtuorwvqgn8qXog/w7xUGFLVmiXXY6LZcuXL6BOYAlIX+0es3J6P7l+vtMS+jftFDpfffWalXd2TO0p2ltobU2HSNEJjLly5cuXLly4MuX0X0oYlgPaBtA2ido8IvaL2i9oraL2i9pfacEttLbS20vtL7S+0ttBbQe0HtB7QW0OEDaDtDO0A7QEwS5cuXLly5cuDB+UkptERETKRh4x4yu04pxSu04pxTxhwhw6gIGUlJRtKP4y5cuXL+O5cuXLmJfx3Llsv55rD5mOmJj5mP4xrD/ACJrCVKlSulSpUqV0qVKlSpXSpUqVKlSpUqVK6VKlSpXSpUqVKldKlSpUr/0x/kif//Z" parent="FI-kgKAkl0UwsvHkJetG-30" vertex="1">
          <mxGeometry width="137" height="137" as="geometry" />
        </mxCell>
        <mxCell id="FI-kgKAkl0UwsvHkJetG-17" value="&lt;font style=&quot;font-size: 24px;&quot;&gt;TablePlus&lt;/font&gt;" style="text;html=1;whiteSpace=wrap;strokeColor=none;fillColor=none;align=center;verticalAlign=middle;rounded=0;" parent="FI-kgKAkl0UwsvHkJetG-30" vertex="1">
          <mxGeometry x="20" y="140" width="100" height="30" as="geometry" />
        </mxCell>
        <mxCell id="FI-kgKAkl0UwsvHkJetG-31" value="" style="group" parent="1" vertex="1" connectable="0">
          <mxGeometry x="240.26" y="497" width="130" height="160" as="geometry" />
        </mxCell>
        <mxCell id="FI-kgKAkl0UwsvHkJetG-6" value="" style="shape=image;verticalLabelPosition=bottom;verticalAlign=top;imageAspect=0;aspect=fixed;image=data:image/svg+xml,PHN2ZyB4bWxuczp4bGluaz0iaHR0cDovL3d3dy53My5vcmcvMTk5OS94bGluayIgeG1sbnM9Imh0dHA6Ly93d3cudzMub3JnLzIwMDAvc3ZnIiB4bWw6c3BhY2U9InByZXNlcnZlIiBzdHlsZT0iZW5hYmxlLWJhY2tncm91bmQ6bmV3IDAgMCAxMjEuNTQgMTIyLjg4IiB2aWV3Qm94PSItMS44NzE3MDAwNDg0NDY2NTUzIC0wLjY1MzMwMTcxNTg1MDgzMDEgMTI2LjIxMDU5NDE3NzI0NjEgMTI1LjY5NjEwNTk1NzAzMTI1IiB5PSIwcHgiIHg9IjBweCIgaWQ9IkxheWVyXzEiIHZlcnNpb249IjEuMSIgd2lkdGg9IjEyNi4yMTA1OTQxNzcyNDYxIiBoZWlnaHQ9IjEyNS42OTYxMDU5NTcwMzEyNSI+PHN0eWxlIHR5cGU9InRleHQvY3NzIj4uc3Qwe2NsaXAtcGF0aDp1cmwoI1NWR0lEXzJfKTt9IC5zdDF7Y2xpcC1wYXRoOnVybCgjU1ZHSURfNl8pO308L3N0eWxlPjxnPjxnPjxkZWZzPjxwYXRoIGQ9Ik02MC4wNCwwYy01LjAxLDAuMDItOS44LDAuNDUtMTQuMDEsMS4yQzMzLjYzLDMuMzksMzEuMzgsNy45OCwzMS4zOCwxNi40NHYxMS4xN2gyOS4zMnYzLjcySDMxLjM4aC0xMSBjLTguNTIsMC0xNS45OCw1LjEyLTE4LjMxLDE0Ljg2Yy0yLjY5LDExLjE3LTIuODEsMTguMTMsMCwyOS43OWMyLjA4LDguNjgsNy4wNiwxNC44NiwxNS41OCwxNC44NmgxMC4wOFY3Ny40NiBjMC05LjY4LDguMzctMTguMjEsMTguMzEtMTguMjFoMjkuMjhjOC4xNSwwLDE0LjY2LTYuNzEsMTQuNjYtMTQuOVYxNi40NGMwLTcuOTQtNi43LTEzLjkxLTE0LjY2LTE1LjI0IEM3MC4yOCwwLjM2LDY1LjA2LTAuMDIsNjAuMDQsMEw2MC4wNCwweiBNNDQuMTksOC45OWMzLjAzLDAsNS41LDIuNTEsNS41LDUuNmMwLDMuMDgtMi40Nyw1LjU3LTUuNSw1LjU3IGMtMy4wNCwwLTUuNS0yLjQ5LTUuNS01LjU3QzM4LjY5LDExLjUsNDEuMTUsOC45OSw0NC4xOSw4Ljk5TDQ0LjE5LDguOTl6IiBpZD0iU1ZHSURfMV8iLz48L2RlZnM+PGNsaXBQYXRoIGlkPSJTVkdJRF8yXyI+PHVzZSBzdHlsZT0ib3ZlcmZsb3c6dmlzaWJsZSIgeGxpbms6aHJlZj0iI1NWR0lEXzFfIi8+PC9jbGlwUGF0aD48ZyBjbGFzcz0ic3QwIj48ZGVmcz48cmVjdCBoZWlnaHQ9IjkwLjg3IiB3aWR0aD0iOTAuNzIiIHk9Ii0wLjAyIiB4PSItMC43NSIgaWQ9IlNWR0lEXzNfIi8+PC9kZWZzPjxjbGlwUGF0aCBpZD0iU1ZHSURfNF8iPjx1c2Ugc3R5bGU9Im92ZXJmbG93OnZpc2libGUiIHhsaW5rOmhyZWY9IiNTVkdJRF8zXyIvPjwvY2xpcFBhdGg+PGcgc3R5bGU9ImNsaXAtcGF0aDp1cmwoI1NWR0lEXzRfKSI+PGltYWdlIHRyYW5zZm9ybT0ibWF0cml4KDAuNDggMCAwIC0wLjQ4IC0xLjg3MTcgOTEuOTg2NykiIHhsaW5rOmhyZWY9ImRhdGE6aW1hZ2UvanBlZztiYXNlNjQsLzlqLzRBQVFTa1pKUmdBQkFnRUFsZ0NXQUFELzdBQVJSSFZqYTNrQUFRQUVBQUFBSGdBQS8rNEFJVUZrYjJKbEFHVEFBQUFBQVFNQSBFQU1DQXdZQUFBT2NBQUFFZGdBQUJwei8yd0NFQUJBTEN3c01DeEFNREJBWER3MFBGeHNVRUJBVUd4OFhGeGNYRng4ZUZ4b2FHaG9YIEhoNGpKU2NsSXg0dkx6TXpMeTlBUUVCQVFFQkFRRUJBUUVCQVFFQUJFUThQRVJNUkZSSVNGUlFSRkJFVUdoUVdGaFFhSmhvYUhCb2EgSmpBakhoNGVIaU13S3k0bkp5Y3VLelUxTURBMU5VQkFQMEJBUUVCQVFFQkFRRUJBUVAvQ0FCRUlBTVFBeGdNQklnQUNFUUVERVFILyB4QUNqQUFFQkFRRUJBUUVBQUFBQUFBQUFBQUFCQUFJRkJnUUhBUUVCQVFFQkFBQUFBQUFBQUFBQUFBQUFCQUVDQXhBQUFRRUlBZ0lEIEFBTUFBQUFBQUFBQUFBTXdRQk0wQmhZbVJnSXpBVElSQlJVVUpEVVJBQUFEQmdVRUFBVUZBQUFBQUFBQUFBQUJBa0JDa3JMU2M2SUQgd3pTRUVSSVRveUV4WVRJVVFWR1JVaFVTQUFFREJBSUJCUUFBQUFBQUFBQUFBQUF3TVhHaEFvSkRBWVB3RVlFeVFqUC8yZ0FNQXdFQSBBaEVERVFBQUFQV2ZIOHZHcWw5SGVidStQUjNteHZwTHpWajB0NWtQVFhtUTlPZVlqMDk1ZVBUM2x3OVRlV0QxTjVZUFZYbFJ2NlBmIEpUVWN2amRualZ5Qm83NEJqSm9BWXpJQm9hRFl6SUVnU0JJZThxanM1Zkc3UEhxbHpKM3dER1pBTkFDQWFBR2JtVEJJRWdTSHU2bzcgT1h4K3p4NnBjeWVubUdqTkJqSm9BWXpJQm9BUnBKZ2tBWTkxVkhaek9QMk9SVktDZW5tU1pvTVprQTBBSUJvQVl6STBOR0FZOXpWSCBaemVQMk9SVklEZW5HWkFOR2FDQklBeG1RRFFBalNUQU1lNG1qczVuSTdISXJrQnUrTXlCSUEyYm1RRFFaa0EwQU1aa2FHakh1S283IE9ieU92eWE1QWJ2Z0dNeUFhQUd6Y3lBTVprQTBBSUVqZmIxUldjM2s5ZmsxeUEzZkFNWmtDUUJqTW1hR2dCakpvQVl6SWUycWl0NTMgSjYzS3JrQnUrQVlCQWtBWUJqTW1hREdaQU5BQ0h0Wm9yZWJ5dXR5YTVDVHZna0NRSkFOQURHWkFOR2FER1RRQXg3U3FLM25jcnE4cSB1UXE3NEpBa0NRSkFHQVl6Sm1nd0NBYUQyZFVWdWZqcjA4NnJybUtLb2lpcUNvaWlLS29LaUtPN1ZQUi8vOW9BQ0FFQ0FBRUZBRTB1IEhuaEJUSUtaQlRJS1pCVElLWkJUSUtaQlRJS1pCVFBqd0plalJMMGFKZWpSTHJhSmRiUkxyYUpkYlJMcmFKZGJSTHJhSmRiVGg2dFAgLzlvQUNBRURBQUVGQUZGZWZqbkdVSXloR1VJeWhHVUl5aEdVSXloR1VJM01qY3o1OGl2dTBWOTJpdnUwVjdHaXZZMFY3R2l2WTBWNyBHaXZZMFY3R2l2WTA1K3pULzlvQUNBRUJBQUVGQVBzL3UrUDE2OTFwbDJKbDJKbDJwbDJwbDNKbDNKbDNKbDNwbDNwbDRKbDRKbDRwIGw0cGw0cGw1SkY1SkY1SkY1cEY1cEY1cEY2SkY2Skg4M3grYlZIK2c3NnpWRSs3NnpVOCs3NnpVOCs3NnpVOCs3NjFVMCs3NjFVMCsgNzYxVTArNzYxVXM4NzYxVXM4NzYzVXM4NzYzVWs4NzYzVWs4NzYzVWs4NzY1VWs4NzY1VWM4NzY1VWM4NzY3VWM2NzY3VWM2NzY3VSBVNjc2N1VVNjc2OVVVNjc2OVVVNjc2OTluK1RIeHd4d3h3eHd4d3hzeHN4c3hveG94b3hreGt4Z3hneGd4Y3hjeFl4WXhVeFV4VS9xIGZtLy8yZ0FJQVFJQ0JqOEE0NTU0ZmdhbzFScWpWR3FOVWFvMVJxalZHcVplaGJDbVpiQ21aYkNtWmJDbVpiQ21aYkNtWmJDbllXd3AgMkZzS2RoYkNuWVd3cDJISDdZc2J6ZWJ6ZWJ6ZWJ6ZWJqY2JqN2ZMejNQL2FBQWdCQXdJR1B3RG5qamx1UjZEMEhvUFFlZzlCNkQwSCBvUFFlaGo2bDBxWUYwcVlGMHFZRjBxWUYwcVlGMHFZRjBxWUYwcWRaZEtuV1hTcDFsMHFkWnorT1RtZzBHZzBHZzBHZzBHazBtayt2IHg4OWovOW9BQ0FFQkFRWS9BRTVLc2s4dzFJSmZVbGRQbVpsMCtSL3NOc2NaVWpiSEdWSTJ4eGxTTnNjWlVqYktqS2tiVlVaVWphcWogS2tiVlVaVWphcWpLa2JWVVpVamFxaktrYlZVWlVqYXFqS2tiVlVaVWphcWpLa2JWVVpVamFxaktrYlJVWlVqYUtqS2tiUlVaVWphSyBqS2tiUlVaVWphS2pLa2Y2SFo4UEI1L0gxK1BUczcrM3FNdXltWmJSd2RFWmRsTXkyamc2SXk3S1psdEhCMFJsMlV6TGFPRG9qTHRKIG1XMGNIU0dYYUtaYlJ3ZElaZHBNeTJqZzZReTdSVExhT0ZwREx0Rk10bzRXa011MFV5MmpoYVF5N1JUTGFPRnBETHRGTXRvNFdrTXUgMFV5MmpoYVF5N1JUTGFPRnBETHRGTXRvNFdrTXUwVXkyamhhUVJhS1piUnd0SUl0Rk10bzRXa0VXaW1XMGNQU0NMUlRLYU9IcEJGbyBwbE5IRDBnaTBVeW1qaDZRUmFLWlRSdzlJSi9ONitYc0xwMDd2dDZuL1g2aDdHSHNZZXhoN0dIc1lleGg3R0g4WWZ4aC9HSDhZZnhoIC9HSC9BR0IvMkIvMkIvMkIvd0JnZjlnZjlnZjlnZjhBWUgvWVAxL0Q4SDE2K0xzL243Ui8vOWs9IiBoZWlnaHQ9IjE5MyIgd2lkdGg9IjE5NiIgc3R5bGU9Im92ZXJmbG93OnZpc2libGUiLz48L2c+PC9nPjwvZz48Zz48ZGVmcz48cGF0aCBkPSJNOTMuNjMsMzEuMzN2MTMuMDJjMCwxMC4wOS04LjU2LDE4LjU5LTE4LjMxLDE4LjU5SDQ2LjA0Yy04LjAyLDAtMTQuNjYsNi44Ni0xNC42NiwxNC45djI3LjkxIGMwLDcuOTQsNi45MSwxMi42MiwxNC42NiwxNC45YzkuMjgsMi43MywxOC4xOCwzLjIyLDI5LjI4LDBjNy4zOC0yLjE0LDE0LjY2LTYuNDQsMTQuNjYtMTQuOVY5NC41OEg2MC42OXYtMy43MmgyOS4yOGgxNC42NiBjOC41MiwwLDExLjY5LTUuOTQsMTQuNjYtMTQuODZjMy4wNi05LjE4LDIuOTMtMTguMDEsMC0yOS43OWMtMi4xMS04LjQ4LTYuMTMtMTQuODYtMTQuNjYtMTQuODZIOTMuNjNMOTMuNjMsMzEuMzN6IE03Ny4xNiwxMDIuMDJjMy4wNCwwLDUuNSwyLjQ5LDUuNSw1LjU3YzAsMy4wOS0yLjQ2LDUuNi01LjUsNS42Yy0zLjAzLDAtNS41LTIuNTEtNS41LTUuNiBDNzEuNjYsMTA0LjUxLDc0LjEzLDEwMi4wMiw3Ny4xNiwxMDIuMDJMNzcuMTYsMTAyLjAyeiIgaWQ9IlNWR0lEXzVfIi8+PC9kZWZzPjxjbGlwUGF0aCBpZD0iU1ZHSURfNl8iPjx1c2Ugc3R5bGU9Im92ZXJmbG93OnZpc2libGUiIHhsaW5rOmhyZWY9IiNTVkdJRF81XyIvPjwvY2xpcFBhdGg+PGcgY2xhc3M9InN0MSI+PGRlZnM+PHJlY3QgaGVpZ2h0PSI5Mi41MyIgd2lkdGg9IjkwLjk3IiB5PSIzMS4zMyIgeD0iMzEuMzgiIGlkPSJTVkdJRF83XyIvPjwvZGVmcz48Y2xpcFBhdGggaWQ9IlNWR0lEXzhfIj48dXNlIHN0eWxlPSJvdmVyZmxvdzp2aXNpYmxlIiB4bGluazpocmVmPSIjU1ZHSURfN18iLz48L2NsaXBQYXRoPjxnIHN0eWxlPSJjbGlwLXBhdGg6dXJsKCNTVkdJRF84XykiPjxpbWFnZSB0cmFuc2Zvcm09Im1hdHJpeCgwLjQ4IDAgMCAtMC40OCAzMC4yNTg5IDEyNS4wNDI4KSIgeGxpbms6aHJlZj0iZGF0YTppbWFnZS9qcGVnO2Jhc2U2NCwvOWovNEFBUVNrWkpSZ0FCQWdFQWxnQ1dBQUQvN0FBUlJIVmphM2tBQVFBRUFBQUFIZ0FBLys0QUlVRmtiMkpsQUdUQUFBQUFBUU1BIEVBTUNBd1lBQUFObkFBQUVNUUFBQmtULzJ3Q0VBQkFMQ3dzTUN4QU1EQkFYRHcwUEZ4c1VFQkFVR3g4WEZ4Y1hGeDhlRnhvYUdob1ggSGg0akpTY2xJeDR2THpNekx5OUFRRUJBUUVCQVFFQkFRRUJBUUVBQkVROFBFUk1SRlJJU0ZSUVJGQkVVR2hRV0ZoUWFKaG9hSEJvYSBKakFqSGg0ZUhpTXdLeTRuSnljdUt6VTFNREExTlVCQVAwQkFRRUJBUUVCQVFFQkFRUC9DQUJFSUFNWUF4Z01CSWdBQ0VRRURFUUgvIHhBQ29BQUVCQVFFQkFRQUFBQUFBQUFBQUFBQUFBUU1FQWdZQkFRRUJBUUVCQUFBQUFBQUFBQUFBQUFBQkF3SUZCQkFBQVFFSUFnSUQgQVFBQUFBQUFBQUFBQUFNd1FBSVNNd1FVUkRJVElTTUJFU0pGRVFBQkFRZ0NBZ0lEQVFBQUFBQUFBQUFCQUVEd29jRXlVcUl6Y2RFUiBjbEVTTVFJaUV4SUFBUUVDREFRRUJ3QUFBQUFBQUFBQUFBRXdBcEdoTWtKeWtxSURNME9Eb3hFeGhJVmhjUkkwSVVHQlVtTFNFLy9hIEFBd0RBUUFDRVFNUkFBQUErMnk5WWVOOU9zellkNk1ocXlHckpHakl1cklhc2thc1J0TWhxeUdyS0wzdkQwY0hQMFlmSDNCaDJCRmcgRW9FV1FBbExGa0FBZFk5UEJodmg4L1NWaDNGZ0VKUkJLQkZFRUFzV0FSMWoxTUdHK1B6ZFFZOUJMRkVFQVJZb1FsRVdRQWxMMUs5UCA1MkcrSHo5QmgzRmdFSlN4WUJDVVFTZ1JSQkhXUFR3WWI0L1AxRm1QWUNWRUFFc1dBUWxFV0tFSlIxRDBzR08yT0hRWTlSVVFLRVJZIEJDVXNBRVJSQkwxRDA4TGh2ajgvVVdZOUFKVVFLQWxSQUJMRmdFSlIwcTlMRmp0amhReDdpb2dBSXNnRlNvaXdDRXBZRHFIbzRzZHMgY0tHUFFLbEVFQUpVUUtFUlJBQkwwajBjR08yV1BVR1BRUUFDeFpBQUVXUUNwVVJZZEk5SEZscmxoMEdQVVdBQVFDcFJCQUNWRUNoSCBRcjBjZldaQVoyQUNVQUFCQ0FBQWxRTng5bVgvMmdBSUFRSUFBUVVBdVZsZmhidldPOVk3MWp2V085WTcxanZXTzlZeUZqSVdNaFk3IEl5NnJ0THF1MHVxN1M1cnRMbXMwdWF6UzVyTkxtczB1YXpTNHJOTGlzMFdrN1BXZXM5WjZ6MW5yUFdlczlaNnoxbjVQLzlvQUNBRUQgQUFFRkFJSVlaWklTU0VraEpJU1NFa2hKSVNTRWtoSklDU0FsK0JQaTBUNHRJT0xTRGkwZzR0SU9MU0RpMGc0dElPTFNEaTBnNHRJZiB2Njhuazhuazhuazhuay9SK2o5SGsvL2FBQWdCQVFBQkJRQzVXVWdqeVZ6SlhNbGN5VnpLWE1wY3lsektYTXBjeWx6S1hNcGN5bHpLIFhNcGN5cmd5cmd5cmd5N2d5N2d5N2d5N2d5N2c3Vk1POHF1LzgrOHF1K2hkMUhmUXU2anZvWGRSMzBMdW83NkYzVWQ5QzdxTytoZFYgSGZSdXFqdm8zVlIzMGJxbzc2TjFVZDlHNnFPK2pkVkhmU3VxanZwWE5SMzBybW83NlZ6VWQ5SzVxTytuYzgzZlR1ZWJ2cDNQTjMwMSA0WVBtT1JJa1NKRWlSSWtTSkVpUklrU0pFaVJJa1NKRWlSSWtTSkVpUklrUkpFU1JFa1JKRVNSRWtSSllNYi8vMmdBSUFRSUNCajhBIGZSSDMwUkh1U1BLWWw1V1V4THlzcGlYbFpURXZLeW1MZVZsTVc4cktZdDVXVXhieXNwaTNsZFRGdks2bUxlVjFKVDNzUFh6bmZkNSsgSmVVbW5iaThwTk8zRjVTYWR2SDZUVHQ0L1NhZHZINlRUdDQvU2FkQVAwbW5RRDlKcDBBL1NhZEFQMG1uUWozSCtYSGpPOWZHTDRHVCB1R1R1R1R1R1R1R1J1R1J1bVJ1bVJ1bVJ1bVJ1bVJ1bVg3VDh1WDZ4bi8vYUFBZ0JBd0lHUHdCT0tKQVNVZ0pLUUVsSUNTN0FTWFlDIFM3QVNYWUNTN0FTWFlDUzdBU1hZRGttTncrZ25rMDF4R21zSTAxaEdtc0kwMWhHbXNJMDFoR21zSTAxUkdtcUkwMVJKVVJPaUowUk8gaUowUk9zazZ5VHJKT3NrNnlUckpPc256eFBBLy85b0FDQUVCQVFZL0FBUDBQZ2VQUDRIeXFvRHBWUUNxZ09sVkFkS3FBNlZVQjBxbyBEcFZRSFNxZ09sVkFkS3FBNlZVQjBxb0RwVlFIU3JnT2xYQWRLdUE2VmNCMHE0RHBWd0hTcmdPbFhBZEt1QTZYK3ZuKy9ud0x2Q0hyIE10RDNJZXN5MFBjaDZ6TFE5eUhyTXREM0llc3kwUGNoNnpMUTl5SHJNdEQzSWVzeTBQY2h4TXREM0ljVExROXlIRXkwUGNoeE10RDMgSWNUTFE5eUhFeTBQY2h4TXREM0ljVExROXlIRXkwUGNoeE10RDNJY1RMUTl5SEUyaDdrT0p0RDNJY1RhSHVRNG0wUGNoOXYyK3A4ZiBqeDVXekVyWmlWc3hLMllsYk1TdG1KV3pFclppVnN4SzJZbGJNU3RtSld6RXJaaVZzeEsyWWxiTVN0bUpXM0VyYmlWdHhLMjRsYmNTIHZIMi9tN3dmbjRYLzJRPT0iIGhlaWdodD0iMTk3IiB3aWR0aD0iMTk2IiBzdHlsZT0ib3ZlcmZsb3c6dmlzaWJsZSIvPjwvZz48L2c+PC9nPjwvZz48L3N2Zz4=;" parent="FI-kgKAkl0UwsvHkJetG-31" vertex="1">
          <mxGeometry width="130" height="130" as="geometry" />
        </mxCell>
        <mxCell id="FI-kgKAkl0UwsvHkJetG-16" value="&lt;font style=&quot;font-size: 24px;&quot;&gt;Python&lt;/font&gt;" style="text;html=1;whiteSpace=wrap;strokeColor=none;fillColor=none;align=center;verticalAlign=middle;rounded=0;" parent="FI-kgKAkl0UwsvHkJetG-31" vertex="1">
          <mxGeometry x="14.870000000000005" y="130" width="100" height="30" as="geometry" />
        </mxCell>
      </root>
    </mxGraphModel>
  </diagram>
</mxfile>
